<svg width="92" height="28" viewBox="0 0 92 28" fill="none" xmlns="http://www.w3.org/2000/svg">
<path fill-rule="evenodd" clip-rule="evenodd" d="M57.3429 21.91C52.0512 25.9 44.3978 28 37.8027 28C28.9877 28.0483 20.4721 24.7392 13.9213 18.72C13.4313 18.27 13.8723 17.64 14.4701 18C21.7435 22.2386 29.9756 24.4654 38.3515 24.46C44.2116 24.46 50.6498 23.22 56.5786 20.66C57.4605 20.27 58.2151 21.26 57.3429 21.91Z" fill="#EFA82E"/>
<path fill-rule="evenodd" clip-rule="evenodd" d="M59.538 19.36C58.8618 18.48 55.0694 18.94 53.3643 19.15C52.8547 19.21 52.7763 18.75 53.2369 18.42C56.265 16.25 61.2235 16.88 61.7919 17.6C62.3799 18.34 61.6449 23.4 58.8129 25.81C58.3719 26.19 57.9603 25.99 58.1563 25.5C58.7933 23.87 60.2142 20.24 59.538 19.36Z" fill="#EFA82E"/>
<path fill-rule="evenodd" clip-rule="evenodd" d="M53.4917 3.13V1.03C53.4917 0.699997 53.7269 0.489997 54.0111 0.489997H63.2716C63.5656 0.489997 63.8008 0.709998 63.8008 1.02V2.82C63.8008 3.12 63.546 3.52 63.1051 4.15L58.3033 11.12C60.0868 11.08 61.9683 11.35 63.595 12.28C63.9478 12.48 64.0556 12.79 64.085 13.1V15.34C64.085 15.65 63.7518 16.01 63.399 15.82C61.8854 15.0276 60.2079 14.616 58.5067 14.6195C56.8055 14.6229 55.1297 15.0414 53.6191 15.84C53.2957 16.01 52.9626 15.66 52.9626 15.35V13.22C52.9626 12.88 52.9626 12.29 53.3055 11.77L58.8619 3.66H54.0209C53.9519 3.66133 53.8833 3.6486 53.8191 3.62256C53.755 3.59652 53.6966 3.55769 53.6473 3.50834C53.598 3.459 53.5589 3.40012 53.5322 3.33516C53.5055 3.27019 53.4917 3.20045 53.4917 3.13ZM19.7324 16.26H16.9102C16.7863 16.2514 16.6693 16.1986 16.5797 16.1108C16.4902 16.0231 16.4337 15.906 16.4202 15.78V1.06C16.4202 0.759998 16.6554 0.529997 16.9592 0.529997H19.5756C19.85 0.539997 20.0656 0.759997 20.0852 1.03V2.95H20.144C20.83 1.09 22.1039 0.219997 23.8482 0.219997C25.6121 0.219997 26.7097 1.09 27.5034 2.95C27.7834 2.13412 28.3101 1.43007 29.0076 0.939414C29.7051 0.448754 30.5372 0.196838 31.384 0.219997C32.56 0.219997 33.8535 0.719997 34.6473 1.83C35.5292 3.07 35.3528 4.87 35.3528 6.45V15.73C35.3528 16.03 35.1078 16.26 34.8139 16.26H32.0014C31.8678 16.255 31.741 16.1987 31.6465 16.1022C31.5519 16.0057 31.4967 15.8763 31.4918 15.74V7.94C31.4918 7.31 31.5506 5.76 31.4134 5.18C31.1978 4.18 30.5707 3.91 29.7573 3.91C29.0714 3.91 28.3658 4.37 28.0718 5.11C27.7876 5.86 27.817 7.1 27.817 7.93V15.73C27.817 16.03 27.572 16.26 27.2682 16.26H24.4558C24.3239 16.2526 24.1995 16.1951 24.107 16.0989C24.0146 16.0027 23.9607 15.8747 23.956 15.74V7.94C23.956 6.29 24.2108 3.88 22.2215 3.88C20.193 3.88 20.2714 6.23 20.2714 7.93V15.73C20.2714 16.03 20.0264 16.26 19.7324 16.26ZM71.7776 3.23C69.7099 3.23 69.5727 6.11 69.5727 7.9C69.5727 9.7 69.5531 13.54 71.758 13.54C73.9335 13.54 74.0413 10.44 74.0413 8.55C74.0413 7.31 73.9923 5.83 73.6199 4.65C73.3064 3.63 72.6792 3.23 71.7776 3.23ZM71.758 0.219997C75.9326 0.219997 78.1963 3.88 78.1963 8.52C78.1963 13.02 75.6974 16.57 71.758 16.57C67.652 16.57 65.4275 12.92 65.4275 8.37C65.4275 3.78 67.6814 0.219997 71.758 0.219997ZM83.6154 16.26H80.803C80.6711 16.2526 80.5467 16.1951 80.4542 16.0989C80.3618 16.0027 80.3079 15.8747 80.3032 15.74V0.999997C80.32 0.866572 80.3841 0.744046 80.4834 0.655596C80.5827 0.567145 80.7104 0.518904 80.8422 0.519998H83.4488C83.6938 0.529998 83.8996 0.699997 83.9486 0.929997V3.18H83.9976C84.7914 1.17 85.8987 0.209997 87.839 0.209997C89.1032 0.209997 90.3379 0.679997 91.1219 1.95C91.8568 3.12 91.8568 5.11 91.8568 6.53V15.79C91.8357 15.9198 91.7698 16.0375 91.6709 16.1219C91.572 16.2063 91.4467 16.2518 91.3178 16.25H88.4956C88.3746 16.2422 88.26 16.1922 88.1708 16.1085C88.0816 16.0248 88.0233 15.9123 88.0056 15.79V7.79C88.0056 6.19 88.182 3.84 86.2417 3.84C85.5557 3.84 84.9188 4.3 84.6052 5.01C84.2132 5.91 84.1544 6.81 84.1544 7.8V15.72C84.1544 16.02 83.9094 16.25 83.6154 16.25M48.9448 16.22C48.8528 16.2979 48.7398 16.3454 48.6208 16.3561C48.5017 16.3668 48.3823 16.3403 48.2784 16.28C47.3376 15.49 47.171 15.13 46.6615 14.38C45.123 15.98 44.0156 16.46 42.0263 16.46C39.6548 16.46 37.8125 14.96 37.8125 11.99C37.7787 10.9884 38.0485 10.0005 38.5852 9.16118C39.1218 8.32184 39.8992 7.67188 40.8112 7.3C42.3399 6.62 44.4762 6.5 46.1029 6.3V5.94C46.1029 5.25 46.1617 4.44 45.7599 3.86C45.4169 3.33 44.7604 3.11 44.1822 3.11C43.1043 3.11 42.1537 3.67 41.9185 4.83C41.8695 5.09 41.6833 5.35 41.4285 5.36L38.7043 5.06C38.4691 5.01 38.2143 4.82 38.2829 4.46C38.9101 1.09 41.8989 0.0599976 44.5742 0.0599976C45.9461 0.0599976 47.7394 0.439997 48.8174 1.5C50.1893 2.8 50.0521 4.54 50.0521 6.43V10.9C50.0521 12.24 50.6009 12.83 51.1203 13.56C51.2966 13.82 51.3358 14.13 51.1105 14.32C50.5323 14.81 49.5131 15.72 48.9546 16.22H48.9448ZM46.1029 9.22C46.1029 10.34 46.1323 11.27 45.5737 12.27C45.1328 13.07 44.4174 13.57 43.6334 13.57C42.5555 13.57 41.9185 12.73 41.9185 11.49C41.9185 9.05 44.0744 8.61 46.1029 8.61V9.22ZM12.0398 16.22C11.9479 16.2979 11.8348 16.3454 11.7158 16.3561C11.5967 16.3668 11.4773 16.3403 11.3734 16.28C10.4425 15.49 10.2759 15.13 9.75651 14.38C8.21799 15.98 7.12045 16.46 5.12134 16.46C2.74986 16.46 0.907555 14.96 0.907555 11.99C0.873737 10.9884 1.14356 10.0005 1.68021 9.16118C2.21687 8.32184 2.99421 7.67188 3.9062 7.3C5.43493 6.62 7.57122 6.5 9.19794 6.3V5.94C9.19794 5.25 9.25674 4.44 8.85496 3.86C8.52177 3.33 7.85541 3.11 7.28704 3.11C6.20909 3.11 5.24874 3.67 5.01355 4.83C4.96455 5.09 4.77836 5.35 4.52357 5.36L1.79931 5.06C1.57392 5.01 1.30933 4.82 1.37793 4.46C2.0051 1.09 5.00375 0.0599976 7.67902 0.0599976C9.05095 0.0599976 10.8345 0.439997 11.9124 1.5C13.2843 2.8 13.1569 4.54 13.1569 6.43V10.9C13.1569 12.24 13.6959 12.83 14.2153 13.56C14.3917 13.82 14.4309 14.13 14.2055 14.32C13.6273 14.81 12.6082 15.72 12.0496 16.22H12.0398ZM9.19794 9.22C9.19794 10.34 9.22734 11.27 8.67857 12.27C8.22779 13.07 7.52222 13.57 6.71866 13.57C5.64072 13.57 5.01355 12.73 5.01355 11.49C5.01355 9.05 7.16944 8.61 9.20774 8.61V9.22H9.19794Z" fill="#1B1A19"/>
</svg>
