<svg width="37" height="37" viewBox="0 0 37 37" fill="none" xmlns="http://www.w3.org/2000/svg">
<path d="M18.2947 23.9361V24.1038C18.2947 24.5307 17.9593 24.8661 17.5324 24.8661H3.81112C3.38424 24.8661 3.04883 24.5307 3.04883 24.1038V23.9361C3.04883 21.2528 3.71964 20.582 6.4334 20.582H14.9101C17.6238 20.582 18.2947 21.2528 18.2947 23.9361Z" fill="#28B446"/>
<path d="M3.81112 26.3906C3.38424 26.3906 3.04883 26.726 3.04883 27.1529V28.6775V30.1868C3.04883 32.8701 3.71964 33.5409 6.4334 33.5409H14.9101C17.6238 33.5409 18.2947 32.8701 18.2947 30.1868V28.6775V27.1529C18.2947 26.726 17.9593 26.3906 17.5324 26.3906H3.81112Z" fill="#28B446"/>
<path d="M33.5412 22.8672C33.5412 28.7673 28.7693 33.5393 22.8691 33.5393L24.47 30.8712" fill="#28B446"/>
<path d="M33.5412 22.8672C33.5412 28.7673 28.7693 33.5393 22.8691 33.5393L24.47 30.8712" stroke="#28B446" stroke-width="1.5" stroke-linecap="round" stroke-linejoin="round"/>
<path d="M3.04883 13.7229C3.04883 7.82273 7.82077 3.05078 13.7209 3.05078L12.1201 5.7188" fill="#28B446"/>
<path d="M3.04883 13.7229C3.04883 7.82273 7.82077 3.05078 13.7209 3.05078L12.1201 5.7188" stroke="#28B446" stroke-width="1.5" stroke-linecap="round" stroke-linejoin="round"/>
<path d="M28.2044 16.772C31.9934 16.772 35.065 13.7004 35.065 9.91141C35.065 6.12239 31.9934 3.05078 28.2044 3.05078C24.4154 3.05078 21.3438 6.12239 21.3438 9.91141C21.3438 13.7004 24.4154 16.772 28.2044 16.772Z" fill="#28B446"/>
</svg>
