<svg width="129" height="80" viewBox="0 0 129 80" fill="none" xmlns="http://www.w3.org/2000/svg">
<g clip-path="url(#clip0_109_229)">
<path d="M95.2201 73.1766C94.3556 72.2176 93.2965 71.454 92.1134 70.9368C90.9317 70.489 89.8658 69.7811 88.9946 68.8657C88.5773 68.3824 88.3349 67.7727 88.3065 67.1348C88.2781 66.4969 88.4654 65.868 88.8381 65.3496C90.536 63.2302 93.8233 64.7114 95.3285 66.3008C96.9763 68.2246 97.9304 70.6459 98.0378 73.1766H95.2201Z" fill="#9FFFB3"/>
<path d="M97.1828 74.8021C97.1828 74.8021 96.5928 69.7446 93.8955 67.9866" stroke="#80E598" stroke-width="0.986714" stroke-linecap="round" stroke-linejoin="round"/>
<path d="M100.723 78.9805L105.094 58.4376L113.246 78.9805H100.723Z" fill="#BDDEF4"/>
<path d="M105.672 58.9434H119.11L121.976 79.4983H108.526L105.672 58.9434Z" fill="white" stroke="#DCF6FF" stroke-width="0.986714" stroke-miterlimit="10"/>
<path d="M32.7244 79.968C50.6538 79.968 65.1884 65.4333 65.1884 47.5039C65.1884 29.5746 50.6538 15.0399 32.7244 15.0399C14.795 15.0399 0.260376 29.5746 0.260376 47.5039C0.260376 65.4333 14.795 79.968 32.7244 79.968Z" fill="#DCF6FF"/>
<mask id="mask0_109_229" style="mask-type:luminance" maskUnits="userSpaceOnUse" x="0" y="15" width="66" height="65">
<path d="M32.7244 79.968C50.6538 79.968 65.1884 65.4333 65.1884 47.5039C65.1884 29.5746 50.6538 15.0399 32.7244 15.0399C14.795 15.0399 0.260376 29.5746 0.260376 47.5039C0.260376 65.4333 14.795 79.968 32.7244 79.968Z" fill="white"/>
</mask>
<g mask="url(#mask0_109_229)">
<path d="M14.9029 27.1899H75.5442C75.7239 27.1883 75.9021 27.2223 76.0686 27.29C76.2351 27.3576 76.3865 27.4576 76.5141 27.5841C76.6418 27.7106 76.7431 27.8612 76.8122 28.0271C76.8813 28.1929 76.9169 28.3709 76.9169 28.5506V58.1246C76.9169 58.3043 76.8813 58.4823 76.8122 58.6481C76.7431 58.814 76.6418 58.9646 76.5141 59.0911C76.3865 59.2176 76.2351 59.3176 76.0686 59.3852C75.9021 59.4529 75.7239 59.4869 75.5442 59.4853H14.9029C14.6537 59.4869 14.4065 59.4392 14.1758 59.3449C13.945 59.2506 13.7352 59.1116 13.5583 58.9359C13.3815 58.7602 13.2412 58.5512 13.1454 58.3211C13.0497 58.0909 13.0004 57.8441 13.0004 57.5948V29.0804C13.0004 28.8311 13.0497 28.5843 13.1454 28.3541C13.2412 28.124 13.3815 27.915 13.5583 27.7393C13.7352 27.5636 13.945 27.4246 14.1758 27.3303C14.4065 27.236 14.6537 27.1883 14.9029 27.1899Z" fill="#BDDEF4"/>
<path d="M16.0228 27.1899H76.6641C76.8438 27.1883 77.022 27.2223 77.1885 27.29C77.355 27.3576 77.5064 27.4576 77.634 27.5841C77.7616 27.7106 77.863 27.8612 77.9321 28.0271C78.0012 28.1929 78.0368 28.3709 78.0368 28.5506V58.1246C78.0368 58.3043 78.0012 58.4823 77.9321 58.6481C77.863 58.814 77.7616 58.9646 77.634 59.0911C77.5064 59.2176 77.355 59.3176 77.1885 59.3852C77.022 59.4529 76.8438 59.4869 76.6641 59.4853H16.0228C15.7735 59.4869 15.5264 59.4392 15.2956 59.3449C15.0649 59.2506 14.855 59.1116 14.6782 58.9359C14.5014 58.7602 14.361 58.5512 14.2653 58.3211C14.1695 58.0909 14.1202 57.8441 14.1202 57.5948V29.0804C14.1202 28.8311 14.1695 28.5843 14.2653 28.3541C14.361 28.124 14.5014 27.915 14.6782 27.7393C14.855 27.5636 15.0649 27.4246 15.2956 27.3303C15.5264 27.236 15.7735 27.1883 16.0228 27.1899Z" fill="white"/>
<path d="M19.5751 59.4854V82.28" stroke="#BDDEF4" stroke-width="0.986203" stroke-miterlimit="10"/>
<mask id="mask1_109_229" style="mask-type:luminance" maskUnits="userSpaceOnUse" x="14" y="27" width="65" height="33">
<path d="M16.0228 27.1899H76.6641C76.8438 27.1883 77.022 27.2223 77.1885 27.29C77.355 27.3576 77.5064 27.4576 77.634 27.5841C77.7616 27.7106 77.863 27.8612 77.9321 28.0271C78.0012 28.1929 78.0368 28.3709 78.0368 28.5506V58.1246C78.0368 58.3043 78.0012 58.4823 77.9321 58.6481C77.863 58.814 77.7616 58.9646 77.634 59.0911C77.5064 59.2176 77.355 59.3176 77.1885 59.3852C77.022 59.4529 76.8438 59.4869 76.6641 59.4853H16.0228C15.7735 59.4869 15.5264 59.4392 15.2956 59.3449C15.0649 59.2506 14.855 59.1116 14.6782 58.9359C14.5014 58.7602 14.361 58.5512 14.2653 58.3211C14.1695 58.0909 14.1202 57.8441 14.1202 57.5948V29.0804C14.1202 28.8311 14.1695 28.5843 14.2653 28.3541C14.361 28.124 14.5014 27.915 14.6782 27.7393C14.855 27.5636 15.0649 27.4246 15.2956 27.3303C15.5264 27.236 15.7735 27.1883 16.0228 27.1899Z" fill="white"/>
</mask>
<g mask="url(#mask1_109_229)">
<path d="M38.7091 35.5347L-7.1933 74.7179L8.38847 86.049L37.9866 85.2542L55.194 35.5347H38.7091Z" fill="#BDDEF4"/>
</g>
</g>
<path d="M57.831 47.8049V79.98H32.0862V49.4908L45.8136 36.8712L57.831 47.8049Z" fill="#DCF6FF"/>
<path d="M92.884 47.3594H57.8311V79.9799H95.3044V49.9483L92.884 47.3594Z" fill="#F6FCFF"/>
<path d="M91.5354 57.968H88.3564V79.98H91.5354V57.968Z" fill="#BDDEF4"/>
<path d="M88.3564 57.968V75.2838L90.2108 65.1809C90.6277 65.3972 91.0739 65.5513 91.5354 65.6385V57.968H88.3564Z" fill="#BDDEF4"/>
<path d="M88.3684 57.968H83.2146V79.98H88.3684V57.968Z" fill="white"/>
<path d="M78.5305 57.968H75.3516V70.9849H78.5305V57.968Z" fill="#BDDEF4"/>
<path d="M75.3515 57.968H61.4796V70.9849H75.3515V57.968Z" fill="white"/>
<path d="M78.5305 57.968H75.3516V70.9849H78.5305V57.968Z" fill="#BDDEF4"/>
<path d="M99.832 73.1765C101.024 71.8602 102.486 70.8169 104.119 70.1179C105.734 69.5123 107.188 68.5442 108.369 67.2882C108.947 66.6279 109.28 65.79 109.315 64.9138C109.35 64.0376 109.085 63.1758 108.562 62.4715C106.226 59.5214 101.759 61.6166 99.6634 63.8202C97.4119 66.4473 96.1098 69.7556 95.9667 73.2126L99.832 73.1765Z" fill="#9FFFB3"/>
<path d="M81.011 35.6791L44.2843 35.7875L61.1425 51.2849V56.523C61.2029 57.7038 61.7145 58.8164 62.5716 59.6308C63.4288 60.4452 64.566 60.8993 65.7484 60.8993C66.9307 60.8993 68.068 60.4452 68.9251 59.6308C69.7823 58.8164 70.2939 57.7038 70.3543 56.523C70.3543 57.743 70.8389 58.913 71.7015 59.7756C72.5642 60.6383 73.7342 61.1229 74.9541 61.1229C76.1741 61.1229 77.3441 60.6383 78.2067 59.7756C79.0694 58.913 79.554 57.743 79.554 56.523C79.6144 57.7038 80.126 58.8164 80.9832 59.6308C81.8403 60.4452 82.9775 60.8993 84.1599 60.8993C85.3423 60.8993 86.4795 60.4452 87.3366 59.6308C88.1938 58.8164 88.7054 57.7038 88.7658 56.523C88.8262 57.7038 89.3378 58.8164 90.195 59.6308C91.0521 60.4452 92.1893 60.8993 93.3717 60.8993C94.5541 60.8993 95.6913 60.4452 96.5484 59.6308C97.4056 58.8164 97.9172 57.7038 97.9776 56.523V51.2849L81.011 35.6791Z" fill="#BDDEF4"/>
<path d="M61.4676 51.1405L44.4769 35.5347H53.6887L70.6553 51.1405H61.4676Z" fill="#011B33"/>
<path d="M70.6553 51.1405L53.6887 35.5347H62.9005L79.8671 51.1405H70.6553Z" fill="#F6FCFF"/>
<path d="M79.8671 51.1405L62.9005 35.5347H72.1003L89.0909 51.1405H79.8671Z" fill="#011B33"/>
<path d="M89.091 51.1405L72.1003 35.5347H81.3121L98.3028 51.1405H89.091Z" fill="#F6FCFF"/>
<path d="M44.477 35.5347L27.4984 51.1887V56.4147C27.4968 57.0188 27.6143 57.6173 27.844 58.1759C28.0737 58.7346 28.4112 59.2426 28.8372 59.6709C29.2632 60.0991 29.7694 60.4393 30.3269 60.6719C30.8844 60.9045 31.4822 61.0251 32.0863 61.0266V49.4908L46.0785 36.6425L44.477 35.5347Z" fill="#011B33"/>
<path d="M81.6733 66.5537H68.2108V67.4568H81.6733V66.5537Z" fill="#DCF6FF"/>
<path d="M68.2229 66.5537H63.7916V67.4568H68.2229V66.5537Z" fill="#BDDEF4"/>
<path d="M61.4556 51.1405H70.6794V56.3665C70.6794 57.5865 70.1948 58.7565 69.3321 59.6191C68.4695 60.4818 67.2995 60.9664 66.0795 60.9664C64.8596 60.9664 63.6896 60.4818 62.8269 59.6191C61.9643 58.7565 61.4797 57.5865 61.4797 56.3665V51.1405H61.4556Z" fill="#00E1FF"/>
<path d="M70.6553 51.1405H79.8791V56.3665C79.8791 57.5865 79.3945 58.7565 78.5318 59.6191C77.6692 60.4818 76.4992 60.9664 75.2792 60.9664C74.0593 60.9664 72.8893 60.4818 72.0266 59.6191C71.164 58.7565 70.6794 57.5865 70.6794 56.3665V51.1405H70.6553Z" fill="#011B33"/>
<path d="M79.8792 51.1405H89.0909V56.3665C89.091 57.5761 88.6147 58.7371 87.765 59.598C86.9154 60.459 85.7608 60.9506 84.5513 60.9664C83.3313 60.9664 82.1613 60.4818 81.2987 59.6191C80.436 58.7565 79.9514 57.5865 79.9514 56.3665V51.1405H79.8792Z" fill="#00E1FF"/>
<path d="M89.0909 51.1405H98.3027V56.3665C98.3027 57.5865 97.8181 58.7565 96.9555 59.6191C96.0928 60.4818 94.9228 60.9664 93.7029 60.9664C92.4829 60.9664 91.3129 60.4818 90.4503 59.6191C89.5876 58.7565 89.103 57.5865 89.103 56.3665V51.1405H89.0909Z" fill="#011B33"/>
<path d="M43.6701 67.0113C47.248 67.0113 50.1485 64.1108 50.1485 60.5329C50.1485 56.955 47.248 54.0546 43.6701 54.0546C40.0922 54.0546 37.1918 56.955 37.1918 60.5329C37.1918 64.1108 40.0922 67.0113 43.6701 67.0113Z" stroke="#BDDEF4" stroke-width="0.986203" stroke-miterlimit="10"/>
<path d="M50.1365 60.5328H54.2065" stroke="#BDDEF4" stroke-width="0.986203" stroke-miterlimit="10"/>
<path d="M97.1829 74.7178C97.1829 74.7178 98.0017 69.6965 100.795 68.0588" stroke="#80E598" stroke-width="0.986714" stroke-linecap="round" stroke-linejoin="round"/>
<path d="M95.3043 79.98H98.6398L100.157 74.8985H95.3043H100.157H101.036V73.1765H95.3043" fill="#BDDEF4"/>
<path d="M32.0862 79.4983H128.72" stroke="#DCF6FF" stroke-width="0.986714" stroke-miterlimit="10"/>
<path d="M45.8135 36.8712L42.4419 39.99L57.831 53.5608V47.8049L45.8135 36.8712Z" fill="#BDDEF4"/>
</g>
<defs>
<clipPath id="clip0_109_229">
<rect width="128.459" height="79.98" fill="white" transform="translate(0.260376)"/>
</clipPath>
</defs>
</svg>
