<svg width="197" height="40" viewBox="0 0 197 40" fill="none" xmlns="http://www.w3.org/2000/svg">
<path d="M91.4128 21.65C91.4261 22.7568 91.2217 23.855 90.8119 24.8798C90.402 25.9045 89.795 26.8351 89.0267 27.6163C88.2583 28.3976 87.3443 29.0137 86.3386 29.4283C85.3329 29.8429 84.256 30.0475 83.1715 30.03C82.0878 30.0461 81.0119 29.8405 80.0073 29.4253C79.0028 29.0102 78.0899 28.3938 77.3226 27.6127C76.5554 26.8316 75.9492 25.9015 75.54 24.8774C75.1307 23.8533 74.9267 22.7559 74.9399 21.65C74.9226 20.543 75.1239 19.4437 75.5317 18.4177C75.9395 17.3917 76.5455 16.46 77.3136 15.678C78.0817 14.8961 78.9962 14.2799 80.0026 13.8662C81.009 13.4525 82.0867 13.2497 83.1715 13.27C87.7086 13.27 91.403 16.79 91.403 21.65H91.4128ZM87.7968 21.65C87.7968 18.63 85.6507 16.57 83.1715 16.57C80.6824 16.57 78.5363 18.63 78.5363 21.65C78.5363 24.63 80.6824 26.72 83.1715 26.72C85.6507 26.72 87.7968 24.62 87.7968 21.65Z" fill="#EA4335"/>
<path d="M109.179 21.65C109.193 22.7568 108.988 23.855 108.578 24.8798C108.169 25.9045 107.562 26.8351 106.793 27.6163C106.025 28.3976 105.111 29.0137 104.105 29.4283C103.099 29.8429 102.023 30.0475 100.938 30.03C99.8543 30.0461 98.7785 29.8405 97.7739 29.4253C96.7694 29.0102 95.8565 28.3938 95.0892 27.6127C94.3219 26.8316 93.7158 25.9015 93.3065 24.8774C92.8973 23.8533 92.6932 22.7559 92.7064 21.65C92.6905 20.5433 92.8927 19.4447 93.301 18.4193C93.7093 17.394 94.3154 16.4628 95.0832 15.6811C95.851 14.8995 96.765 14.2832 97.7707 13.869C98.7765 13.4548 99.8536 13.2511 100.938 13.27C105.475 13.27 109.17 16.79 109.17 21.65H109.179ZM105.573 21.65C105.573 18.63 103.417 16.57 100.938 16.57C98.449 16.57 96.3029 18.63 96.3029 21.65C96.3029 24.63 98.4588 26.72 100.938 26.72C103.427 26.72 105.573 24.62 105.573 21.65Z" fill="#FBBC05"/>
<path d="M126.201 13.77V28.82C126.201 35 122.624 37.53 118.401 37.53C116.843 37.5403 115.318 37.0756 114.02 36.1954C112.723 35.3153 111.713 34.0598 111.12 32.59L114.256 31.26C114.579 32.1195 115.146 32.8612 115.884 33.3902C116.623 33.9192 117.499 34.2116 118.401 34.23C121.105 34.23 122.781 32.53 122.781 29.33V28.12H122.654C122.112 28.7385 121.445 29.2289 120.699 29.5571C119.952 29.8852 119.145 30.0432 118.332 30.02C114.216 30.02 110.463 26.37 110.463 21.68C110.463 16.95 114.226 13.27 118.332 13.27C120.292 13.27 121.84 14.15 122.654 15.14H122.781V13.78H126.211L126.201 13.77ZM123.036 21.67C123.036 18.73 121.105 16.57 118.656 16.57C116.166 16.57 114.079 18.73 114.079 21.67C114.079 24.6 116.166 26.72 118.656 26.72C121.105 26.72 123.036 24.6 123.036 21.68V21.67Z" fill="#4285F4"/>
<path d="M131.846 4.96002V29.5H128.328V4.96002H131.846Z" fill="#34A853"/>
<path d="M145.555 24.4L148.358 26.3C147.608 27.4507 146.589 28.3931 145.393 29.0425C144.197 29.6918 142.862 30.0277 141.508 30.02C140.429 30.0351 139.358 29.828 138.358 29.4114C137.359 28.9947 136.452 28.3768 135.692 27.5947C134.932 26.8126 134.335 25.8822 133.935 24.8591C133.535 23.836 133.341 22.7412 133.365 21.64C133.365 16.66 136.873 13.26 141.106 13.26C145.369 13.26 147.456 16.72 148.132 18.59L148.505 19.55L137.529 24.18C137.867 24.9616 138.426 25.6216 139.136 26.0745C139.845 26.5275 140.672 26.7523 141.508 26.72C143.35 26.72 144.624 25.8 145.555 24.4ZM136.932 21.39L144.281 18.28C143.87 17.23 142.664 16.5 141.234 16.5C140.635 16.528 140.048 16.6773 139.507 16.9394C138.966 17.2014 138.482 17.5708 138.082 18.0261C137.683 18.4813 137.376 19.0133 137.18 19.5909C136.984 20.1685 136.903 20.7801 136.941 21.39H136.932Z" fill="#EA4335"/>
<path d="M61.6224 19.47V15.9H73.3622C73.47 16.52 73.5288 17.25 73.5288 18.05C73.5288 20.71 72.8134 24.01 70.5105 26.36C68.2762 28.74 65.4148 30.01 61.6224 30.01C54.5961 30.01 48.687 24.17 48.687 17.01C48.687 9.83 54.5961 4 61.6224 4C65.5128 4 68.286 5.56 70.3635 7.59L67.9039 10.09C66.2199 8.43162 63.9624 7.51877 61.6224 7.55C60.4101 7.54855 59.2096 7.79314 58.0908 8.26954C56.972 8.74593 55.9572 9.44461 55.1055 10.3249C54.2538 11.2053 53.5821 12.2496 53.1296 13.3973C52.6771 14.545 52.4527 15.773 52.4696 17.01C52.4696 22.25 56.4874 26.47 61.6224 26.47C62.814 26.5203 64.0028 26.3149 65.1118 25.867C66.2208 25.4192 67.2254 24.7388 68.0606 23.87C69.0406 22.86 69.6874 21.42 69.9422 19.47H61.6126H61.6224Z" fill="#4285F4"/>
</svg>
