<svg width="117" height="80" viewBox="0 0 117 80" fill="none" xmlns="http://www.w3.org/2000/svg">
<g clip-path="url(#clip0_109_177)">
<path d="M30.3783 15.353C29.0704 15.1584 27.7508 15.0538 26.4286 15.0399C25.1065 15.0544 23.7869 15.159 22.479 15.353C16.377 16.2864 10.7925 19.3215 6.69005 23.934C2.58757 28.5465 0.224683 34.4469 0.00946045 40.6162C0.0696682 42.88 0.912577 49.5028 8.06526 58.0523L26.4166 79.9439L44.7679 58.0523C51.9326 49.5028 52.7755 42.88 52.8237 40.6162C52.6095 34.4505 50.25 28.5529 46.1524 23.9408C42.0547 19.3288 36.4759 16.2915 30.3783 15.353ZM35.5441 41.9408C34.9617 43.9081 33.7588 45.6343 32.1149 46.8621C30.4711 48.0898 28.4743 48.7531 26.4226 48.7531C24.3709 48.7531 22.3742 48.0898 20.7303 46.8621C19.0864 45.6343 17.8836 43.9081 17.3011 41.9408C17.0509 41.1006 16.9251 40.2284 16.9278 39.3518C16.9279 37.9362 17.2534 36.5395 17.8791 35.2697C18.8309 33.2839 20.4446 31.6915 22.4429 30.7662C23.6872 30.1899 25.0455 29.9018 26.4166 29.9233C27.7877 29.9018 29.146 30.1899 30.3903 30.7662C32.3796 31.6961 33.9842 33.2879 34.93 35.2697C35.5653 36.5366 35.8952 37.9346 35.8933 39.3518C35.8919 40.2264 35.7745 41.097 35.5441 41.9408Z" fill="#BDDEF4"/>
<path d="M31.5704 15.353C30.2626 15.1581 28.9429 15.0535 27.6208 15.0399C26.2986 15.0535 24.9789 15.1581 23.6711 15.353C17.5713 16.289 11.9896 19.3251 7.88959 23.9374C3.78953 28.5497 1.42835 34.4487 1.21362 40.6162C1.27383 42.88 2.11674 49.5028 9.28146 58.0523L27.6087 79.9439L45.96 58.0523C53.185 49.5028 53.9677 42.88 54.0279 40.6162C53.8131 34.4487 51.452 28.5497 47.3519 23.9374C43.2519 19.3251 37.6702 16.289 31.5704 15.353ZM36.7362 41.9408C36.1272 44.1666 34.7289 46.0948 32.8023 47.3651C30.8757 48.6355 28.5527 49.1612 26.2669 48.8441C23.9811 48.5271 21.8888 47.3889 20.3808 45.6421C18.8727 43.8954 18.052 41.6594 18.0718 39.3518C18.0719 37.9362 18.3973 36.5395 19.0231 35.2697C19.9795 33.2831 21.5972 31.6909 23.5989 30.7662C24.8432 30.1899 26.2015 29.9018 27.5726 29.9233C28.9397 29.9032 30.2938 30.1913 31.5343 30.7662C33.5472 31.6829 35.175 33.2766 36.1341 35.2697C36.7599 36.5395 37.0853 37.9362 37.0854 39.3518C37.0899 40.2268 36.9723 41.0982 36.7362 41.9408Z" fill="#DCF6FF"/>
<mask id="mask0_109_177" style="mask-type:luminance" maskUnits="userSpaceOnUse" x="1" y="15" width="54" height="65">
<path d="M31.5704 15.353C30.2626 15.1581 28.9429 15.0535 27.6208 15.0399C26.2986 15.0535 24.9789 15.1581 23.6711 15.353C17.5713 16.289 11.9896 19.3251 7.88959 23.9374C3.78953 28.5497 1.42835 34.4487 1.21362 40.6162C1.27383 42.88 2.11674 49.5028 9.28146 58.0523L27.6087 79.9439L45.96 58.0523C53.185 49.5028 53.9677 42.88 54.0279 40.6162C53.8131 34.4487 51.452 28.5497 47.3519 23.9374C43.2519 19.3251 37.6702 16.289 31.5704 15.353ZM36.7362 41.9408C36.1272 44.1666 34.7289 46.0948 32.8023 47.3651C30.8757 48.6355 28.5527 49.1612 26.2669 48.8441C23.9811 48.5271 21.8888 47.3889 20.3808 45.6421C18.8727 43.8954 18.052 41.6594 18.0718 39.3518C18.0719 37.9362 18.3973 36.5395 19.0231 35.2697C19.9795 33.2831 21.5972 31.6909 23.5989 30.7662C24.8432 30.1899 26.2015 29.9018 27.5726 29.9233C28.9397 29.9032 30.2938 30.1913 31.5343 30.7662C33.5472 31.6829 35.175 33.2766 36.1341 35.2697C36.7599 36.5395 37.0853 37.9362 37.0854 39.3518C37.0899 40.2268 36.9723 41.0982 36.7362 41.9408Z" fill="white"/>
</mask>
<g mask="url(#mask0_109_177)">
<path d="M85.2275 35.9079C80.7918 31.4778 75.1424 28.4622 68.9933 27.2421C62.8441 26.0221 56.4713 26.6523 50.6802 29.0532C44.8892 31.4541 39.9399 35.5179 36.4578 40.7309C32.9758 45.944 31.1173 52.0723 31.1173 58.3413C31.1173 64.6103 32.9758 70.7386 36.4578 75.9517C39.9399 81.1647 44.8892 85.2285 50.6802 87.6294C56.4713 90.0303 62.8441 90.6605 68.9933 89.4404C75.1424 88.2204 80.7918 85.2047 85.2275 80.7747C91.1645 74.8183 94.4983 66.7512 94.4983 58.3413C94.4983 49.9313 91.1645 41.8643 85.2275 35.9079Z" fill="#BDDEF4"/>
</g>
<path d="M76.7985 8.57361H68.5741V12.463H76.7985V8.57361Z" fill="#9FFFB3"/>
<path d="M76.7985 12.4751H68.5741V16.6174H76.7985V12.4751Z" fill="#011B33"/>
<path d="M85.0228 8.57361H76.7985V12.463H85.0228V8.57361Z" fill="#9FFFB3"/>
<path d="M85.0228 12.4751H76.7985V16.6174H85.0228V12.4751Z" fill="#011B33"/>
<path d="M68.5741 80.0643V8.57361" stroke="#DCF6FF" stroke-width="0.986714" stroke-miterlimit="10"/>
<path d="M37.8079 53.2477C37.7995 58.5262 39.3575 63.6885 42.2847 68.081C45.2119 72.4735 49.3766 75.8987 54.2515 77.9229C59.1264 79.9472 64.4924 80.4794 69.67 79.4523C74.8476 78.4252 79.604 75.8848 83.337 72.1529L45.6229 34.4268C43.1465 36.8958 41.1816 39.8292 39.8406 43.0588C38.4996 46.2884 37.8088 49.7508 37.8079 53.2477Z" fill="#DCF6FF"/>
<path d="M64.4799 26.6239C60.9783 26.6224 57.5108 27.3108 54.2752 28.6496C51.0397 29.9885 48.0996 31.9516 45.6229 34.4268L83.337 72.153C87.0601 68.4207 89.5942 63.6691 90.6196 58.4979C91.645 53.3268 91.1156 47.9678 89.0983 43.0972C87.081 38.2266 83.6662 34.0627 79.2848 31.1309C74.9034 28.1991 69.7518 26.6308 64.4799 26.6239Z" fill="white"/>
<path d="M37.8079 53.2477C37.7995 58.5262 39.3575 63.6885 42.2847 68.081C45.2119 72.4735 49.3766 75.8987 54.2515 77.9229C59.1264 79.9472 64.4924 80.4794 69.67 79.4523C74.8476 78.4252 79.604 75.8848 83.337 72.1529L45.6229 34.4268C43.1465 36.8958 41.1816 39.8292 39.8406 43.0588C38.4996 46.2884 37.8088 49.7508 37.8079 53.2477Z" fill="#DCF6FF"/>
<mask id="mask1_109_177" style="mask-type:luminance" maskUnits="userSpaceOnUse" x="37" y="26" width="55" height="54">
<path d="M64.48 79.968C79.2105 79.968 91.152 68.0265 91.152 53.2959C91.152 38.5654 79.2105 26.6239 64.48 26.6239C49.7494 26.6239 37.8079 38.5654 37.8079 53.2959C37.8079 68.0265 49.7494 79.968 64.48 79.968Z" fill="white"/>
</mask>
<g mask="url(#mask1_109_177)">
<path d="M55.4006 45.5051L54.8587 46.2757L53.5101 47.0464L52.9682 48.2505L51.764 48.5395L50.018 50.9478L50.0903 52.152L49.3798 53.8739L50.7405 57.4864L52.631 59.1722L54.0881 59.0638L55.509 59.4733C55.509 59.4733 57.821 58.811 57.9173 58.823C58.4634 59.2563 58.986 59.7186 59.4827 60.2078H60.7952L60.3136 62.6161L62.8904 67.1799L62.0475 68.8416L63.6972 71.6473V72.7431L65.1543 73.7786L64.8291 74.477L65.2988 74.9346L67.8877 74.6577L70.9703 73.2127L71.464 72.0085L72.6682 71.5389V69.6725L75.3414 67.8783L74.6671 64.1093L78.6769 59.2324L79.6282 55.62L79.4837 55.2346L76.8105 56.5953L76.2204 56.1859L76.3649 55.7524L74.6671 54.464L74.1613 52.9829L73.4629 52.2604L72.4033 50.7431L71.0546 49.1055H71.7651L74.342 51.6583L76.8466 55.5598L78.0508 54.8011L79.2549 53.9341L79.9895 52.73L81.0491 52.0316L81.6271 49.9604L80.0737 49.0694L79.1947 50.0568L77.0754 48.094L77.9785 47.8893L79.3151 48.7804L80.3989 48.4793L81.0491 48.9369L83.7103 48.2987L85.6972 49.0453L88.2138 54.5603L89.117 52.9829L88.4788 50.5746L89.0808 49.0092L89.0086 47.5642L89.5504 46.4804L90.4897 47.5762L94.1022 47.2511L87.2385 34.2101L73.1619 26.6239L71.5844 28.1171L73.7881 30.6337L73.3546 31.573L71.4279 31.7175L70.5248 29.5259L69.4411 29.9474L70.6452 32.6688L69.4411 32.729L65.5878 32.5965L63.9019 33.7405L62.0475 35.1252L61.1805 36.209L62.18 37.0519L60.9758 37.5456L60.3015 38.822L58.8565 39.8335H57.6524L58.1942 40.5921L57.5801 42.0612L56.1953 41.7842L55.1718 42.5308L54.5697 44.5538L56.978 44.7103L59.0733 43.5062L59.868 42.302L61.9873 42.1455L62.2402 42.7355L63.6491 43.8554L62.8784 45.3244L63.7574 45.7459L64.9616 44.2046L64.1909 42.4345L65.6359 42.1575L65.5275 43.5182C65.5275 43.5182 65.7082 44.8307 65.9851 44.9993C66.2621 45.1679 67.0327 45.7459 67.0327 45.7459L68.1044 43.9517L68.5379 45.4569L70.1154 46.2637L72.03 45.3365L72.1263 46.2035L71.8614 47.4076L70.6572 47.9977L66.5511 47.5642L64.9375 47.8893L64.5281 48.7322L62.6255 47.9977L61.8669 46.5286L61.9512 45.4689L59.4345 44.9271L57.6765 45.5893L55.4006 45.5051Z" fill="#011B33"/>
<path d="M78.7612 66.2286L77.4125 67.7338L76.8105 68.0228L76.2806 68.6008L76.5215 69.3956L76.2325 70.106L75.8231 70.5636C75.8247 70.8591 75.857 71.1537 75.9194 71.4426L77.0513 71.6714L78.0267 69.4437L78.7492 67.782L79.1947 67.4689L79.0743 66.4454L78.7612 66.2286Z" fill="#011B33"/>
<path d="M37.8079 48.4553C38.1739 49.0221 38.5076 49.609 38.8074 50.2134C38.8074 50.3458 38.6869 52.0196 38.6749 52.0196C38.6629 52.0196 38.6749 52.8746 38.6749 52.8746L39.6021 54.3436L39.8068 55.6803C39.67 56.1354 39.5813 56.6035 39.5419 57.0771C39.8539 57.363 40.1513 57.6644 40.433 57.9802L41.4565 59.2566L42.8051 60.5571L43.2266 61.3759L43.3229 62.3513L42.9376 63.5554L42.7811 64.2057L43.0701 65.4098V66.2287L43.3711 67.1679H42.2874L42.7811 68.0951L42.9978 68.7333L42.8654 69.793L33.1117 64.7957L34.3158 54.44L37.8079 48.4553Z" fill="#011B33"/>
<path d="M42.8172 37.3289L43.0099 37.5817L43.8287 36.9556H44.2261L44.6716 36.1849L45.5506 35.92L44.9365 36.3535V36.6545L45.3098 36.8713L45.8637 36.4017L46.2009 35.908L46.0323 35.4624L46.6464 34.9687L47.1642 34.6797L46.6585 34.2583L47.3689 34.0656C47.4299 34.1939 47.4983 34.3185 47.5736 34.4389C47.5736 34.5593 48.5129 34.4389 48.5129 34.4389L46.6223 35.643L46.5621 36.1247L46.9595 36.8592L48.0914 35.908V35.1975L48.5129 34.752L49.3317 34.2583L49.5003 33.2709L49.9217 32.5002L50.2589 32.0908L50.018 31.7295L50.584 31.3081L51.2704 30.8264L51.0657 30.1039L49.127 29.0684L43.2507 33.7164L42.8172 37.3289Z" fill="#011B33"/>
<path d="M51.5112 32.9939L54.2807 30.6579L55.0393 30.2364L56.4723 29.4056L57.9052 28.5626L57.6885 28.3339L58.2304 28.0689L57.9293 27.9846L58.0257 27.5391L57.4958 27.6475V27.9846L56.5927 28.2014L56.3519 27.5632L58.7602 26.1302C59.1826 26.238 59.5879 26.4042 59.9643 26.624C59.9287 26.9753 59.8436 27.3199 59.7115 27.6475L59.0973 28.4422L59.6633 28.8516V28.6469L61.2287 28.7192L61.4455 28.96L61.1805 29.4296L61.8308 29.6103L61.7104 29.8993C61.3098 29.8639 60.9068 29.8639 60.5062 29.8993C60.3723 30.2339 60.2911 30.5873 60.2654 30.9469L59.0131 31.3081C59.0131 31.3081 58.8204 30.8987 58.7241 30.995C58.5442 31.2432 58.3908 31.5096 58.2665 31.7898L57.6644 31.9945L56.1351 31.6453L54.931 32.1029L54.4493 31.8982L53.6184 32.9337L52.053 33.6201L51.5112 32.9939Z" fill="#011B33"/>
<path d="M57.3995 32.2835C57.3995 32.44 56.7372 32.7049 56.7372 32.7049L56.6048 33.1143L56.087 33.1866V33.7164L56.7974 33.9813L58.0016 33.6683L58.712 33.2709L58.5675 32.6929C58.5675 32.6929 58.5675 32.3557 58.411 32.44C58.2919 32.4998 58.1583 32.5248 58.0257 32.5123L57.8089 32.2594L57.3995 32.2835Z" fill="#011B33"/>
</g>
<path d="M58.399 50.9117C59.1954 50.0819 59.6913 49.0095 59.8078 47.8652C59.7723 46.783 59.359 45.7474 58.6398 44.938C57.9206 44.1286 56.9407 43.5965 55.8702 43.4339C55.6418 43.4161 55.4123 43.4161 55.1839 43.4339C54.9554 43.4161 54.7259 43.4161 54.4975 43.4339C53.4314 43.6016 52.4571 44.1359 51.7427 44.9448C51.0283 45.7537 50.6185 46.7865 50.584 47.8652C50.7005 49.0095 51.1964 50.0819 51.9928 50.9117L55.2079 54.753L58.423 50.9117H58.399ZM56.7733 48.5034C56.6728 48.8488 56.4629 49.1522 56.1752 49.3681C55.8875 49.584 55.5375 49.7007 55.1778 49.7007C54.8181 49.7007 54.4682 49.584 54.1805 49.3681C53.8927 49.1522 53.6829 48.8488 53.5823 48.5034C53.534 48.3557 53.5096 48.2012 53.5101 48.0458C53.5099 47.7991 53.5677 47.5558 53.6787 47.3354C53.8471 46.9848 54.1323 46.7038 54.4855 46.5406C54.7 46.4399 54.9349 46.3905 55.1718 46.3961C55.4127 46.3895 55.6518 46.439 55.8702 46.5406C56.2211 46.707 56.5054 46.9871 56.677 47.3354C56.788 47.5558 56.8457 47.7991 56.8456 48.0458C56.8424 48.1891 56.818 48.3311 56.7733 48.4673V48.5034Z" fill="#9FFFB3"/>
<path d="M71.5604 64.5427C72.3561 63.7076 72.8517 62.6317 72.9692 61.4842C72.9337 60.402 72.5205 59.3664 71.8012 58.5569C71.082 57.7475 70.1022 57.2154 69.0316 57.0529C68.8032 57.0349 68.5737 57.0349 68.3453 57.0529C68.1168 57.0349 67.8873 57.0349 67.6589 57.0529C66.5884 57.2154 65.6085 57.7475 64.8893 58.5569C64.1701 59.3664 63.7569 60.402 63.7213 61.4842C63.8388 62.6317 64.3344 63.7076 65.1302 64.5427L68.3453 68.384L71.5604 64.5427ZM69.9348 62.1344C69.8342 62.4798 69.6243 62.7832 69.3366 62.9991C69.0489 63.215 68.6989 63.3317 68.3392 63.3317C67.9796 63.3317 67.6296 63.215 67.3419 62.9991C67.0542 62.7832 66.8443 62.4798 66.7437 62.1344C66.6954 61.9867 66.671 61.8322 66.6715 61.6768C66.6743 61.4305 66.7319 61.1878 66.8401 60.9664C67.0056 60.6166 67.2922 60.3385 67.6469 60.1837C67.8605 60.0793 68.0954 60.0257 68.3332 60.0271C68.5749 60.026 68.8136 60.0795 69.0316 60.1837C69.3839 60.3421 69.6694 60.6191 69.8384 60.9664C69.9466 61.1878 70.0042 61.4305 70.007 61.6768C70.0026 61.8161 69.9783 61.9539 69.9348 62.0863V62.1344Z" fill="#9FFFB3"/>
<path d="M80.3507 40.592C81.1465 39.7569 81.6421 38.681 81.7596 37.5335C81.724 36.4513 81.3108 35.4157 80.5916 34.6063C79.8724 33.7969 78.8925 33.2647 77.822 33.1022C77.5935 33.0843 77.3641 33.0843 77.1356 33.1022C76.9072 33.0843 76.6777 33.0843 76.4492 33.1022C75.3787 33.2647 74.3989 33.7969 73.6797 34.6063C72.9604 35.4157 72.5472 36.4513 72.5117 37.5335C72.6292 38.681 73.1248 39.7569 73.9205 40.592L77.0754 44.4333L80.2905 40.592H80.3507ZM78.7251 38.1837C78.6246 38.5291 78.4147 38.8325 78.127 39.0484C77.8393 39.2643 77.4893 39.381 77.1296 39.381C76.7699 39.381 76.4199 39.2643 76.1322 39.0484C75.8445 38.8325 75.6346 38.5291 75.5341 38.1837C75.4858 38.036 75.4614 37.8816 75.4618 37.7262C75.4647 37.4798 75.5222 37.2371 75.6304 37.0157C75.8021 36.6674 76.0864 36.3873 76.4372 36.221C76.6578 36.1259 76.8954 36.0767 77.1356 36.0765C77.3719 36.0767 77.6056 36.1259 77.822 36.221C78.1097 36.3546 78.3539 36.5668 78.5265 36.8331C78.699 37.0993 78.7929 37.4089 78.7974 37.7262C78.793 37.8654 78.7686 38.0033 78.7251 38.1356V38.1837Z" fill="#9FFFB3"/>
<path d="M11.3646 79.4863H98.5696" stroke="#DCF6FF" stroke-width="0.986714" stroke-miterlimit="10"/>
<path d="M94.4273 22.1323V24.1071V26.082V28.0568V30.0316H99.9183V28.0568V26.082V24.1071V22.1323H94.4273Z" fill="#F6FCFF"/>
<path d="M99.9182 22.1323V26.082V30.0316H105.397V26.082V22.1323H99.9182Z" fill="#00E1FF"/>
<path d="M105.397 22.1323V26.082V30.0316H110.876V26.082V22.1323H105.397Z" fill="#011B33"/>
<path d="M94.4273 80.0642V22.1323" stroke="#DCF6FF" stroke-width="0.986714" stroke-miterlimit="10"/>
</g>
<defs>
<clipPath id="clip0_109_177">
<rect width="116.791" height="79.98" fill="white" transform="translate(0.00946045)"/>
</clipPath>
</defs>
</svg>
