<svg width="129" height="80" viewBox="0 0 129 80" fill="none" xmlns="http://www.w3.org/2000/svg">
<g clip-path="url(#clip0_109_300)">
<path d="M109.45 71.4426V54.8975" stroke="#CAF1FC" stroke-width="0.986203" stroke-miterlimit="10"/>
<path d="M109.45 79.8114V71.4425" stroke="#BDDEF4" stroke-width="0.986203" stroke-miterlimit="10"/>
<path d="M109.45 59.4973L111.75 57.39" stroke="#CAF1FC" stroke-width="0.986203" stroke-miterlimit="10"/>
<path d="M109.45 62.6281L107.355 60.1957" stroke="#CAF1FC" stroke-width="0.986203" stroke-miterlimit="10"/>
<path d="M109.45 67.6254L111.811 65.7589" stroke="#CAF1FC" stroke-width="0.986203" stroke-miterlimit="10"/>
<path d="M105.995 26.672H61.4769V79.9799H105.995V26.672Z" fill="#F6FCFF"/>
<path d="M32.9745 79.9801C50.9039 79.9801 65.4386 65.4454 65.4386 47.516C65.4386 29.5866 50.9039 15.052 32.9745 15.052C15.0451 15.052 0.510498 29.5866 0.510498 47.516C0.510498 65.4454 15.0451 79.9801 32.9745 79.9801Z" fill="#DCF6FF"/>
<path d="M46.425 27.2982H21.3545C21.0766 27.2982 20.8102 27.4085 20.6137 27.605C20.4172 27.8015 20.3069 28.0679 20.3069 28.3458V38.2439C20.2942 39.0627 19.9601 39.8437 19.3765 40.4182C18.793 40.9927 18.007 41.3146 17.1881 41.3145H14.6233C14.4847 41.3129 14.3471 41.3389 14.2187 41.3908C14.0902 41.4427 13.9732 41.5196 13.8747 41.6171C13.7761 41.7145 13.6979 41.8305 13.6445 41.9584C13.5911 42.0863 13.5636 42.2236 13.5636 42.3621V66.9751C13.5636 67.1137 13.5911 67.2509 13.6445 67.3788C13.6979 67.5067 13.7761 67.6227 13.8747 67.7202C13.9732 67.8176 14.0902 67.8945 14.2187 67.9464C14.3471 67.9984 14.4847 68.0243 14.6233 68.0227H39.6938C39.9716 68.0227 40.2381 67.9123 40.4345 67.7159C40.631 67.5194 40.7414 67.2529 40.7414 66.9751V42.3621C40.7405 42.111 40.6485 41.8688 40.4823 41.6805C40.3162 41.4922 40.0873 41.3707 39.8383 41.3386H46.425C46.5646 41.3402 46.7031 41.3139 46.8324 41.2612C46.9617 41.2086 47.0792 41.1306 47.1779 41.0318C47.2766 40.9331 47.3546 40.8157 47.4073 40.6864C47.46 40.5571 47.4863 40.4186 47.4847 40.279V28.3458C47.4847 28.2072 47.4572 28.07 47.4038 27.9421C47.3504 27.8142 47.2721 27.6982 47.1736 27.6007C47.075 27.5033 46.9581 27.4264 46.8296 27.3744C46.7011 27.3225 46.5636 27.2966 46.425 27.2982Z" fill="white"/>
<mask id="mask0_109_300" style="mask-type:luminance" maskUnits="userSpaceOnUse" x="10" y="27" width="35" height="42">
<path d="M43.4748 41.3145C43.6144 41.3161 43.7529 41.2898 43.8822 41.2372C44.0115 41.1845 44.129 41.1065 44.2277 41.0078C44.3264 40.909 44.4044 40.7916 44.4571 40.6623C44.5098 40.533 44.5361 40.3945 44.5345 40.2549V28.3458C44.5345 28.2072 44.507 28.07 44.4536 27.9421C44.4002 27.8142 44.3219 27.6982 44.2234 27.6007C44.1248 27.5033 44.0079 27.4264 43.8794 27.3744C43.7509 27.3225 43.6134 27.2966 43.4748 27.2982H18.4043C18.1253 27.2981 17.8576 27.4081 17.6592 27.6043C17.4608 27.8004 17.3478 28.0668 17.3446 28.3458V38.2439C17.3383 39.0626 17.0078 39.8454 16.4255 40.4209C15.8432 40.9964 15.0566 41.3177 14.2379 41.3145H11.6731C11.5345 41.3129 11.397 41.3389 11.2685 41.3908C11.14 41.4427 11.023 41.5196 10.9245 41.6171C10.8259 41.7145 10.7477 41.8305 10.6943 41.9584C10.6409 42.0863 10.6134 42.2236 10.6134 42.3621V66.9751C10.6134 67.1137 10.6409 67.2509 10.6943 67.3788C10.7477 67.5067 10.8259 67.6227 10.9245 67.7202C11.023 67.8176 11.14 67.8945 11.2685 67.9464C11.397 67.9984 11.5345 68.0243 11.6731 68.0227H36.7436C37.0214 68.0227 37.2879 67.9123 37.4844 67.7159C37.6808 67.5194 37.7912 67.2529 37.7912 66.9751V42.3621C37.7912 42.0843 37.6808 41.8178 37.4844 41.6214C37.2879 41.4249 37.0214 41.3145 36.7436 41.3145H43.4748Z" fill="white"/>
</mask>
<g mask="url(#mask0_109_300)">
<path d="M37.153 26.672L13.5636 50.2614V78.9203H43.2942H63.4638L37.153 26.672Z" fill="#BDDEF4"/>
</g>
<path d="M105.995 26.672H61.4769V79.9799H105.995V26.672Z" fill="#F6FCFF"/>
<path d="M81.237 32.0667H75.6377V40.8329H81.237V32.0667Z" fill="white"/>
<path d="M83.1517 32.0667H81.2491V40.8329H83.1517V32.0667Z" fill="#DCF6FF"/>
<path d="M43.7758 32.0667H40.2717V40.8329H43.7758V32.0667Z" fill="#F6FCFF"/>
<path d="M40.2717 32.0667H39.0796V40.8329H40.2717V32.0667Z" fill="#BDDEF4"/>
<path d="M49.9169 32.0667H46.4128V40.8329H49.9169V32.0667Z" fill="#F6FCFF"/>
<path d="M46.4249 32.0667H45.2328V40.8329H46.4249V32.0667Z" fill="#BDDEF4"/>
<path d="M56.0461 32.0667H52.542V40.8329H56.0461V32.0667Z" fill="#F6FCFF"/>
<path d="M52.5421 32.0667H51.35V40.8329H52.5421V32.0667Z" fill="#BDDEF4"/>
<path d="M43.7758 32.0667H40.2717V40.8329H43.7758V32.0667Z" fill="#F6FCFF"/>
<path d="M40.2717 32.0667H39.0796V40.8329H40.2717V32.0667Z" fill="#BDDEF4"/>
<path d="M49.9169 32.0667H46.4128V40.8329H49.9169V32.0667Z" fill="#F6FCFF"/>
<path d="M46.4249 32.0667H45.2328V40.8329H46.4249V32.0667Z" fill="#BDDEF4"/>
<path d="M56.0461 32.0667H52.542V40.8329H56.0461V32.0667Z" fill="#F6FCFF"/>
<path d="M52.5421 32.0667H51.35V40.8329H52.5421V32.0667Z" fill="#BDDEF4"/>
<path d="M43.7758 32.0667H40.2717V40.8329H43.7758V32.0667Z" fill="#F6FCFF"/>
<path d="M40.2717 32.0667H39.0796V40.8329H40.2717V32.0667Z" fill="#BDDEF4"/>
<path d="M49.9169 32.0667H46.4128V40.8329H49.9169V32.0667Z" fill="#F6FCFF"/>
<path d="M46.4249 32.0667H45.2328V40.8329H46.4249V32.0667Z" fill="#BDDEF4"/>
<path d="M56.0461 32.0667H52.542V40.8329H56.0461V32.0667Z" fill="#F6FCFF"/>
<path d="M52.5421 32.0667H51.35V40.8329H52.5421V32.0667Z" fill="#BDDEF4"/>
<path d="M43.7758 43.8313H40.2717V52.5975H43.7758V43.8313Z" fill="#F6FCFF"/>
<path d="M40.2717 43.8313H39.0796V52.5975H40.2717V43.8313Z" fill="#BDDEF4"/>
<path d="M46.4249 43.8313H45.2328V52.5975H46.4249V43.8313Z" fill="#BDDEF4"/>
<path d="M56.0461 43.8313H52.542V52.5975H56.0461V43.8313Z" fill="#F6FCFF"/>
<path d="M52.5421 43.8313H51.35V52.5975H52.5421V43.8313Z" fill="#BDDEF4"/>
<path d="M43.7758 55.6199H40.2717V64.3861H43.7758V55.6199Z" fill="#F6FCFF"/>
<path d="M40.2717 55.6199H39.0796V64.3861H40.2717V55.6199Z" fill="#BDDEF4"/>
<path d="M49.9169 55.6199H46.4128V64.3861H49.9169V55.6199Z" fill="#F6FCFF"/>
<path d="M46.4249 55.6199H45.2328V64.3861H46.4249V55.6199Z" fill="#BDDEF4"/>
<path d="M56.0461 55.6199H52.542V64.3861H56.0461V55.6199Z" fill="#F6FCFF"/>
<path d="M52.5421 55.6199H51.35V64.3861H52.5421V55.6199Z" fill="#BDDEF4"/>
<path d="M43.7758 67.3845H40.2717V76.1508H43.7758V67.3845Z" fill="#F6FCFF"/>
<path d="M40.2717 67.3845H39.0796V76.1508H40.2717V67.3845Z" fill="#BDDEF4"/>
<path d="M49.9169 67.3845H46.4128V76.1508H49.9169V67.3845Z" fill="#F6FCFF"/>
<path d="M46.4249 67.3845H45.2328V76.1508H46.4249V67.3845Z" fill="#BDDEF4"/>
<path d="M56.0461 67.3845H52.542V76.1508H56.0461V67.3845Z" fill="#F6FCFF"/>
<path d="M52.5421 67.3845H51.35V76.1508H52.5421V67.3845Z" fill="#BDDEF4"/>
<path d="M81.237 32.0667H75.6377V40.8329H81.237V32.0667Z" fill="white"/>
<path d="M83.1517 32.0667H81.2491V40.8329H83.1517V32.0667Z" fill="#DCF6FF"/>
<path d="M81.237 32.0667H75.6377V40.8329H81.237V32.0667Z" fill="white"/>
<path d="M83.1517 32.0667H81.2491V40.8329H83.1517V32.0667Z" fill="#DCF6FF"/>
<path d="M91.0991 32.0667H85.4998V40.8329H91.0991V32.0667Z" fill="white"/>
<path d="M93.0017 32.0667H91.0991V40.8329H93.0017V32.0667Z" fill="#DCF6FF"/>
<path d="M100.949 32.163H95.3497V52.6095H100.949V32.163Z" fill="white"/>
<path d="M102.852 32.0667H100.949V40.8329H102.852V32.0667Z" fill="#DCF6FF"/>
<path d="M91.0991 31.9824H85.4998V52.429H91.0991V31.9824Z" fill="white"/>
<path d="M93.0017 31.9824H91.0991V40.7487H93.0017V31.9824Z" fill="#DCF6FF"/>
<path d="M102.852 32.0667H100.949V40.7607H102.852V32.0667Z" fill="#DCF6FF"/>
<path d="M81.237 43.8433H75.6377V52.6095H81.237V43.8433Z" fill="white"/>
<path d="M83.1517 43.8433H81.2491V52.6095H83.1517V43.8433Z" fill="#DCF6FF"/>
<path d="M91.0991 43.8433H85.4998V52.6095H91.0991V43.8433Z" fill="white"/>
<path d="M93.0017 43.8433H91.0991V52.6095H93.0017V43.8433Z" fill="#DCF6FF"/>
<path d="M100.949 43.8433H95.3497V52.6095H100.949V43.8433Z" fill="white"/>
<path d="M102.852 43.8433H100.949V52.6095H102.852V43.8433Z" fill="#DCF6FF"/>
<path d="M34.1305 26.672V42.9642V79.9799H61.4769V26.672H34.1305Z" fill="#DCF6FF"/>
<path d="M81.237 32.0667H75.6377V40.8329H81.237V32.0667Z" fill="white"/>
<path d="M83.1517 32.0667H81.2491V40.8329H83.1517V32.0667Z" fill="#DCF6FF"/>
<path d="M43.7758 32.0667H40.2717V40.8329H43.7758V32.0667Z" fill="#F6FCFF"/>
<path d="M40.2717 32.0667H39.0796V40.8329H40.2717V32.0667Z" fill="#BDDEF4"/>
<path d="M49.9169 32.0667H46.4128V40.8329H49.9169V32.0667Z" fill="#F6FCFF"/>
<path d="M46.4249 32.0667H45.2328V40.8329H46.4249V32.0667Z" fill="#BDDEF4"/>
<path d="M56.0461 32.0667H52.542V40.8329H56.0461V32.0667Z" fill="#F6FCFF"/>
<path d="M52.5421 32.0667H51.35V40.8329H52.5421V32.0667Z" fill="#BDDEF4"/>
<path d="M43.7758 32.0667H40.2717V40.8329H43.7758V32.0667Z" fill="#F6FCFF"/>
<path d="M40.2717 32.0667H39.0796V40.8329H40.2717V32.0667Z" fill="#BDDEF4"/>
<path d="M49.9169 32.0667H46.4128V40.8329H49.9169V32.0667Z" fill="#F6FCFF"/>
<path d="M46.4249 32.0667H45.2328V40.8329H46.4249V32.0667Z" fill="#BDDEF4"/>
<path d="M56.0461 32.0667H52.542V40.8329H56.0461V32.0667Z" fill="#F6FCFF"/>
<path d="M52.5421 32.0667H51.35V40.8329H52.5421V32.0667Z" fill="#BDDEF4"/>
<path d="M46.4009 32.0667H45.2087V76.1628H46.4009V32.0667Z" fill="#BDDEF4"/>
<path d="M52.5421 32.0667H51.35V76.1628H52.5421V32.0667Z" fill="#BDDEF4"/>
<path d="M43.7758 43.8313H40.2717V52.5975H43.7758V43.8313Z" fill="white"/>
<path d="M40.2717 43.8313H39.0796V52.5975H40.2717V43.8313Z" fill="#BDDEF4"/>
<path d="M49.9169 43.8313H46.4128V52.5975H49.9169V43.8313Z" fill="white"/>
<path d="M46.4249 43.8313H45.2328V52.5975H46.4249V43.8313Z" fill="#BDDEF4"/>
<path d="M56.0461 43.8313H52.542V52.5975H56.0461V43.8313Z" fill="white"/>
<path d="M52.5421 43.8313H51.35V52.5975H52.5421V43.8313Z" fill="#BDDEF4"/>
<path d="M43.7758 55.6199H40.2717V64.3861H43.7758V55.6199Z" fill="white"/>
<path d="M40.2717 55.6199H39.0796V64.3861H40.2717V55.6199Z" fill="#BDDEF4"/>
<path d="M49.9169 55.6199H46.4128V64.3861H49.9169V55.6199Z" fill="white"/>
<path d="M46.4249 55.6199H45.2328V64.3861H46.4249V55.6199Z" fill="#BDDEF4"/>
<path d="M56.0461 55.6199H52.542V64.3861H56.0461V55.6199Z" fill="white"/>
<path d="M52.5421 55.6199H51.35V64.3861H52.5421V55.6199Z" fill="#BDDEF4"/>
<path d="M43.7758 67.3845H40.2717V76.1508H43.7758V67.3845Z" fill="white"/>
<path d="M40.2717 67.3845H39.0796V76.1508H40.2717V67.3845Z" fill="#BDDEF4"/>
<path d="M49.9169 67.3845H46.4128V76.1508H49.9169V67.3845Z" fill="white"/>
<path d="M46.4249 67.3845H45.2328V76.1508H46.4249V67.3845Z" fill="#BDDEF4"/>
<path d="M56.0461 67.3845H52.542V76.1508H56.0461V67.3845Z" fill="white"/>
<path d="M52.5421 67.3845H51.35V76.1508H52.5421V67.3845Z" fill="#BDDEF4"/>
<path d="M81.237 32.163H75.6377V52.6818H81.237V32.163Z" fill="white"/>
<path d="M83.1517 32.0667H81.2491V40.8329H83.1517V32.0667Z" fill="#DCF6FF"/>
<path d="M83.1517 43.8433H81.2491V52.6095H83.1517V43.8433Z" fill="#DCF6FF"/>
<path d="M93.0017 43.8433H91.0991V52.6095H93.0017V43.8433Z" fill="#DCF6FF"/>
<path d="M102.852 43.8433H100.949V52.6095H102.852V43.8433Z" fill="#DCF6FF"/>
<path d="M92.9896 -0.012085H56.1425V26.684H92.9896V-0.012085Z" fill="#F6FCFF"/>
<path d="M56.1425 26.672H39.0796V8.42904L56.1425 -0.012085V26.672Z" fill="#DCF6FF"/>
<path d="M106.38 10.8615H98.1555V15.3529H106.38V10.8615Z" fill="#9FFFB3"/>
<path d="M106.38 15.3409H98.1555V19.8324H106.38V15.3409Z" fill="#9FFFB3"/>
<path d="M114.604 10.8615H106.38V15.3529H114.604V10.8615Z" fill="#9FFFB3"/>
<path d="M114.604 15.3409H106.38V19.8324H114.604V15.3409Z" fill="#9FFFB3"/>
<path d="M98.1555 26.672V10.8615" stroke="#DCF6FF" stroke-width="0.986714" stroke-miterlimit="10"/>
<path d="M86.8124 7.3092H61.4769V26.672H86.8124V7.3092Z" fill="white"/>
<path d="M88.7148 7.3092H86.8123V26.672H88.7148V7.3092Z" fill="#BDDEF4"/>
<path d="M102.852 32.0667H100.949V52.6095H102.852V32.0667Z" fill="#BDDEF4"/>
<path d="M83.1277 31.9824H81.2251V52.6819H83.1277V31.9824Z" fill="#BDDEF4"/>
<path d="M93.0017 31.9824H91.0991V52.6096H93.0017V31.9824Z" fill="#BDDEF4"/>
<path d="M95.3498 31.0673H92.9896V52.6096H95.3498V31.0673Z" fill="#F6FCFF"/>
<path d="M85.4877 31.0673H83.1276V52.6096H85.4877V31.0673Z" fill="#F6FCFF"/>
<path d="M87.7636 16.0514H61.4769V17.0508H87.7636V16.0514Z" fill="#00E1FF"/>
<path d="M88.7148 7.3092H86.8123V9.84997H88.7148V7.3092Z" fill="#BDDEF4"/>
<path d="M83.1277 31.9824H81.2251V35.1373H83.1277V31.9824Z" fill="#BDDEF4"/>
<path d="M93.0017 31.9824H91.0991V35.1373H93.0017V31.9824Z" fill="#BDDEF4"/>
<path d="M102.852 31.9824H100.949V35.1373H102.852V31.9824Z" fill="#BDDEF4"/>
<path d="M90.786 58.8109H82.7543V79.9679H90.786V58.8109Z" fill="white"/>
<path d="M110.63 58.8109H93.8687V79.9679H110.63V58.8109Z" fill="white"/>
<path d="M83.8622 58.823V78.2581L90.7861 71.3221V58.823H83.8622Z" fill="#BDDEF4"/>
<path d="M82.7543 58.8109H75.6377V79.9679H82.7543V58.8109Z" fill="#DCF6FF"/>
<path d="M113.171 58.8109V79.98" stroke="#DCF6FF" stroke-width="1.11274" stroke-miterlimit="10"/>
<path d="M93.3027 58.8109V79.98" stroke="#DCF6FF" stroke-width="1.11274" stroke-miterlimit="10"/>
<path d="M83.3082 58.8109V79.98" stroke="#DCF6FF" stroke-width="1.11274" stroke-miterlimit="10"/>
<path d="M112.593 58.823H110.63V61.9538H112.593V58.823Z" fill="#BDDEF4"/>
<path d="M112.593 61.9658H110.63V79.9679H112.593V61.9658Z" fill="#BDDEF4"/>
<path d="M92.7488 61.436H90.786V79.968H92.7488V61.436Z" fill="#BDDEF4"/>
<path d="M86.5835 55.6079H74.4336V58.811H86.5835V55.6079Z" fill="#BDDEF4"/>
<path d="M82.7543 58.8109H75.6377V79.9679H82.7543V58.8109Z" fill="#F6FCFF"/>
<path d="M86.5835 55.6079H85.3312V61.436H86.5835V55.6079Z" fill="#BDDEF4"/>
<path d="M43.7758 32.0667H40.2717V76.1628H43.7758V32.0667Z" fill="white"/>
<path d="M49.9169 32.0667H46.4128V76.1628H49.9169V32.0667Z" fill="white"/>
<path d="M56.0461 32.0667H52.542V76.1628H56.0461V32.0667Z" fill="white"/>
<path d="M32.3363 79.4742H128.32" stroke="#DCF6FF" stroke-width="0.986203" stroke-miterlimit="10"/>
<path d="M40.7533 32.0667H39.0675V76.1628H40.7533V32.0667Z" fill="#BDDEF4"/>
<path d="M46.9186 32.0667H45.2328V76.1628H46.9186V32.0667Z" fill="#BDDEF4"/>
<path d="M53.0358 32.0667H51.35V76.1628H53.0358V32.0667Z" fill="#BDDEF4"/>
<path d="M114.785 55.6079H105.38H86.5715V61.436H105.38H114.785H116.844V55.6079H114.785Z" fill="#011B33"/>
<path d="M74.4336 55.6079L61.4889 68.5526V78.9204H75.6377V58.811H74.4336V55.6079Z" fill="#BDDEF4"/>
<mask id="mask1_109_300" style="mask-type:luminance" maskUnits="userSpaceOnUse" x="0" y="15" width="66" height="65">
<path d="M32.9745 79.9801C50.9039 79.9801 65.4386 65.4454 65.4386 47.516C65.4386 29.5866 50.9039 15.052 32.9745 15.052C15.0451 15.052 0.510498 29.5866 0.510498 47.516C0.510498 65.4454 15.0451 79.9801 32.9745 79.9801Z" fill="white"/>
</mask>
<g mask="url(#mask1_109_300)">
<path d="M27.5679 79.8115V68.0228" stroke="#BDDEF4" stroke-width="0.986203" stroke-miterlimit="10"/>
</g>
<path d="M110.63 61.4119L93.7964 78.258V61.4359L110.63 61.4119Z" fill="#BDDEF4"/>
<path d="M104.525 72.5021C104.998 72.5021 105.38 72.1194 105.38 71.6472C105.38 71.175 104.998 70.7922 104.525 70.7922C104.053 70.7922 103.671 71.175 103.671 71.6472C103.671 72.1194 104.053 72.5021 104.525 72.5021Z" fill="#00E1FF"/>
<path d="M101.611 72.5021C102.084 72.5021 102.466 72.1194 102.466 71.6472C102.466 71.175 102.084 70.7922 101.611 70.7922C101.139 70.7922 100.756 71.175 100.756 71.6472C100.756 72.1194 101.139 72.5021 101.611 72.5021Z" fill="#00E1FF"/>
</g>
<defs>
<clipPath id="clip0_109_300">
<rect width="127.809" height="79.98" fill="white" transform="translate(0.510498)"/>
</clipPath>
</defs>
</svg>
