<svg width="180" height="40" viewBox="0 0 180 40" fill="none" xmlns="http://www.w3.org/2000/svg">
<g clip-path="url(#clip0_1_134)">
<path d="M121.311 35.966H119.823V35.193H123.621V35.966H122.132V39.882H121.311V35.966ZM116.112 35.966H114.637V35.193H118.423V35.966H116.947V39.882H116.112V35.966ZM107 35.193H106.179V39.883H107V35.193ZM102.328 37.302C102.533 37.302 102.7 37.237 102.816 37.106C102.935 36.9741 102.999 36.8004 102.996 36.621C102.999 36.4378 102.935 36.2599 102.816 36.123C102.753 36.0605 102.679 36.0119 102.597 35.9804C102.516 35.9489 102.428 35.9351 102.341 35.94H101.468V37.302H102.328ZM100.672 35.193H102.328C102.598 35.193 102.842 35.233 103.034 35.324C103.203 35.3965 103.355 35.5055 103.479 35.6436C103.603 35.7817 103.696 35.9456 103.752 36.124C103.804 36.294 103.83 36.451 103.83 36.594C103.83 36.883 103.766 37.158 103.65 37.381C103.521 37.6134 103.329 37.8039 103.099 37.931L104.112 39.895H103.175L102.289 38.049H101.468V39.895H100.672V35.193ZM97.027 37.302C97.2327 37.302 97.3993 37.237 97.515 37.106C97.6338 36.974 97.6981 36.8002 97.6943 36.621C97.698 36.4379 97.634 36.2601 97.515 36.123C97.4526 36.0604 97.3781 36.0118 97.2963 35.9803C97.2144 35.9488 97.127 35.9351 97.0397 35.94H96.1675V37.302H97.027ZM95.3591 35.193H97.0152C97.2837 35.193 97.5277 35.233 97.7208 35.324C97.9128 35.416 98.0667 35.521 98.1823 35.664C98.298 35.809 98.3881 35.953 98.4391 36.124C98.5048 36.33 98.5295 36.5472 98.5118 36.7631C98.4942 36.9789 98.4345 37.189 98.3362 37.381C98.2065 37.6136 98.0153 37.8042 97.7845 37.931L98.7987 39.895H97.8619L96.976 38.049H96.1421V39.895H95.3454V35.193H95.3591ZM92.0988 37.957L91.5206 36.137L90.9307 37.957H92.0988ZM91.11 35.193H91.9577L93.6138 39.883H92.6887L92.3036 38.69H90.6739L90.2888 39.882H89.4284L91.11 35.193ZM83.435 35.193H84.2053L85.5145 37.407L86.811 35.193H87.5802L87.786 39.883H86.9903L86.8364 36.634L85.6938 38.546H85.296L84.1406 36.673L83.9995 39.883H83.2292L83.435 35.193ZM111.274 39.175C111.474 39.1801 111.671 39.1377 111.852 39.0513C112.032 38.9648 112.191 38.8367 112.314 38.677C112.443 38.52 112.532 38.349 112.596 38.14C112.66 37.943 112.699 37.734 112.699 37.511C112.699 37.288 112.66 37.079 112.596 36.869C112.539 36.6767 112.442 36.4987 112.314 36.346C112.195 36.1923 112.04 36.0707 111.864 35.992C111.681 35.9011 111.479 35.8562 111.274 35.861C111.056 35.861 110.864 35.901 110.684 35.991C110.513 36.0814 110.361 36.2056 110.238 36.3563C110.115 36.5071 110.022 36.6814 109.965 36.869C109.829 37.2809 109.829 37.7271 109.965 38.139C110.029 38.336 110.119 38.519 110.247 38.677C110.376 38.834 110.517 38.952 110.684 39.044C110.864 39.122 111.056 39.175 111.274 39.175ZM111.274 40C110.953 40 110.658 39.934 110.376 39.803C110.106 39.6757 109.862 39.4979 109.657 39.279C109.446 39.0512 109.281 38.7844 109.17 38.493C108.93 37.8701 108.93 37.1779 109.17 36.555C109.285 36.254 109.452 35.992 109.657 35.769C109.862 35.547 110.094 35.376 110.376 35.245C110.658 35.115 110.953 35.049 111.274 35.049C111.595 35.049 111.89 35.114 112.173 35.245C112.443 35.376 112.686 35.547 112.891 35.769C113.097 35.992 113.264 36.254 113.379 36.555C113.619 37.1779 113.619 37.8701 113.379 38.493C113.268 38.7846 113.102 39.0515 112.891 39.279C112.69 39.5019 112.445 39.6803 112.173 39.803C111.891 39.9344 111.584 40.0017 111.274 40Z" fill="black"/>
<path d="M105.588 30.504H112.968L100.621 0.484L94.4222 3.55L98.734 14.002L96.732 18.862L89.0051 0L82.7422 2.92L87.7733 14.97L87.7478 15.023C84.6413 22.633 80.8421 24.715 80.4697 24.859C79.2888 25.3551 78.0034 25.5354 76.7351 25.383L73.7061 32.011C74.7076 32.6 75.8365 32.941 77.03 32.941C78.5451 32.941 79.9307 32.403 81.087 31.513L81.0733 31.539C81.0733 31.539 83.9348 30.059 87.003 21.951C87.003 21.938 88.1329 19.358 88.7356 17.708L88.8002 17.525L94.19 30.517H101.558L97.759 21.375L99.7737 16.516L105.588 30.504Z" fill="#A11D2B"/>
</g>
<defs>
<clipPath id="clip0_1_134">
<rect width="195.99" height="40" fill="white" transform="translate(0.209717)"/>
</clipPath>
</defs>
</svg>
