<svg width="37" height="37" viewBox="0 0 37 37" fill="none" xmlns="http://www.w3.org/2000/svg">
<path d="M33.4955 3.55113C32.3978 2.30097 30.7665 1.52344 28.9675 1.52344C27.2599 1.52344 25.7049 2.22475 24.5919 3.36818C23.9516 4.02375 23.4637 4.81654 23.1741 5.7008C22.9759 6.31063 22.8691 6.95095 22.8691 7.62177C22.8691 8.76521 23.1893 9.84766 23.7534 10.7624C24.0583 11.2808 24.4547 11.7534 24.9121 12.1498C25.9793 13.1255 27.3972 13.7201 28.9675 13.7201C29.6383 13.7201 30.2786 13.6134 30.8732 13.3999C32.2758 12.9578 33.4498 11.9973 34.1816 10.7624C34.5017 10.2441 34.7456 9.64947 34.8829 9.03963C35.0048 8.58226 35.0658 8.10964 35.0658 7.62177C35.0658 6.0667 34.4712 4.63359 33.4955 3.55113ZM31.2391 8.73472H30.1109V9.92389C30.1109 10.549 29.5926 11.0673 28.9675 11.0673C28.3424 11.0673 27.824 10.549 27.824 9.92389V8.73472H26.6958C26.0708 8.73472 25.5524 8.21636 25.5524 7.59128C25.5524 6.9662 26.0708 6.44784 26.6958 6.44784H27.824V5.36539C27.824 4.74031 28.3424 4.22195 28.9675 4.22195C29.5926 4.22195 30.1109 4.74031 30.1109 5.36539V6.44784H31.2391C31.8642 6.44784 32.3825 6.9662 32.3825 7.59128C32.3825 8.21636 31.8794 8.73472 31.2391 8.73472Z" fill="#28B446"/>
<path d="M33.5405 18.2966C33.5405 16.2994 33.1593 14.3784 32.4428 12.6252C31.9702 12.9606 31.4366 13.2198 30.8725 13.4027C30.7048 13.4637 30.5371 13.5094 30.3541 13.5552C30.9335 15.0188 31.2536 16.6196 31.2536 18.2966C31.2536 21.8336 29.8205 25.0505 27.5031 27.3984C27.061 26.8343 26.4969 26.3159 25.8261 25.8738C21.6945 23.099 14.9253 23.099 10.7632 25.8738C10.0924 26.3159 9.54355 26.8343 9.08618 27.3984C6.76881 25.0505 5.3357 21.8336 5.3357 18.2966C5.3357 11.1463 11.1444 5.33766 18.2947 5.33766C19.9565 5.33766 21.5573 5.65782 23.0209 6.23716C23.0666 6.05421 23.1123 5.88651 23.1733 5.70356C23.3563 5.13946 23.6155 4.6211 23.9661 4.14848C22.2128 3.43193 20.2919 3.05078 18.2947 3.05078C9.89421 3.05078 3.04883 9.89616 3.04883 18.2966C3.04883 22.7179 4.95456 26.6971 7.97323 29.4871C7.97323 29.5023 7.97323 29.5023 7.95799 29.5175C8.11044 29.67 8.29339 29.792 8.44585 29.9292C8.53733 30.0054 8.61356 30.0816 8.70503 30.1426C8.97946 30.3713 9.28437 30.5848 9.57404 30.7982C9.68077 30.8744 9.77224 30.9354 9.87896 31.0116C10.1686 31.2098 10.4735 31.3928 10.7937 31.5605C10.9004 31.6215 11.0224 31.6977 11.1291 31.7587C11.434 31.9264 11.7542 32.0788 12.0896 32.2161C12.2116 32.277 12.3335 32.338 12.4555 32.3838C12.7909 32.521 13.1263 32.6429 13.4617 32.7497C13.5837 32.7954 13.7057 32.8411 13.8276 32.8716C14.1935 32.9783 14.5594 33.0698 14.9253 33.1613C15.0321 33.1918 15.1388 33.2223 15.2607 33.2375C15.6876 33.329 16.1145 33.39 16.5566 33.4357C16.6176 33.4357 16.6786 33.451 16.7396 33.4662C17.2579 33.512 17.7763 33.5424 18.2947 33.5424C18.813 33.5424 19.3314 33.512 19.8345 33.4662C19.8955 33.4662 19.9565 33.451 20.0174 33.4357C20.4596 33.39 20.8865 33.329 21.3133 33.2375C21.4201 33.2223 21.5268 33.1765 21.6487 33.1613C22.0146 33.0698 22.3958 32.9936 22.7464 32.8716C22.8684 32.8259 22.9904 32.7802 23.1123 32.7497C23.4478 32.6277 23.7984 32.521 24.1186 32.3838C24.2405 32.338 24.3625 32.277 24.4845 32.2161C24.8046 32.0788 25.1248 31.9264 25.445 31.7587C25.5669 31.6977 25.6736 31.6215 25.7804 31.5605C26.0853 31.3775 26.3902 31.2098 26.6951 31.0116C26.8018 30.9507 26.8933 30.8744 27 30.7982C27.3049 30.5848 27.5946 30.3713 27.869 30.1426C27.9605 30.0664 28.0367 29.9902 28.1282 29.9292C28.2959 29.792 28.4636 29.6548 28.6161 29.5175C28.6161 29.5023 28.6161 29.5023 28.6008 29.4871C31.6348 26.6971 33.5405 22.7179 33.5405 18.2966Z" fill="#28B446"/>
<path d="M18.2953 10.5664C15.1394 10.5664 12.5781 13.1277 12.5781 16.2836C12.5781 19.3785 15.0022 21.8941 18.2191 21.9855C18.2648 21.9855 18.3258 21.9855 18.3563 21.9855C18.3868 21.9855 18.4325 21.9855 18.463 21.9855C18.4783 21.9855 18.4935 21.9855 18.4935 21.9855C21.5732 21.8788 23.9973 19.3785 24.0125 16.2836C24.0125 13.1277 21.4512 10.5664 18.2953 10.5664Z" fill="#28B446"/>
</svg>
