<svg width="197" height="40" viewBox="0 0 197 40" fill="none" xmlns="http://www.w3.org/2000/svg">
<path d="M93.2186 4.374C95.0276 2.462 97.548 1.253 100.326 1.253C104.03 1.253 107.24 3.363 108.962 6.483C110.501 5.78284 112.167 5.42361 113.851 5.429C120.528 5.429 125.913 10.989 125.913 17.846C125.913 24.703 120.506 30.264 113.851 30.264C113.056 30.263 112.263 30.1819 111.483 30.022C110.716 31.4216 109.597 32.5871 108.242 33.3983C106.886 34.2095 105.343 34.6371 103.772 34.637C102.437 34.6361 101.119 34.3285 99.9166 33.737C98.3878 37.407 94.813 40 90.656 40C86.3266 40 82.6224 37.209 81.2005 33.275C80.5698 33.4072 79.9275 33.4736 79.2837 33.473C74.1154 33.473 69.9369 29.165 69.9369 23.824C69.9333 22.1366 70.3629 20.4777 71.183 19.0125C72.0032 17.5474 73.1851 16.327 74.6113 15.473C74.0103 14.0811 73.7018 12.5761 73.7058 11.055C73.6842 4.967 78.5732 0 84.5607 0C88.0925 0 91.2371 1.714 93.2186 4.374Z" fill="#00A1E0"/>
<path d="M78.0353 20.747L78.2725 20.11C78.3156 20 78.3803 20.044 78.4224 20.066C78.4871 20.11 78.5302 20.132 78.6164 20.198C79.2848 20.638 79.909 20.638 80.103 20.638C80.5979 20.638 80.9213 20.374 80.9213 20V19.978C80.9213 19.582 80.447 19.428 79.8874 19.253L79.7581 19.209C79.0035 18.989 78.1862 18.659 78.1862 17.692V17.67C78.1862 16.747 78.9183 16.088 79.9737 16.088H80.0815C80.7057 16.088 81.2868 16.264 81.718 16.549C81.7611 16.571 81.8042 16.615 81.7827 16.681C81.7611 16.747 81.5671 17.253 81.5455 17.319C81.5024 17.429 81.3946 17.363 81.3946 17.363C80.9418 17.1237 80.4404 16.9957 79.9305 16.989C79.4778 16.989 79.1985 17.231 79.1985 17.56V17.582C79.1985 17.956 79.6934 18.132 80.2539 18.308L80.3617 18.33C81.1153 18.571 81.912 18.901 81.912 19.846V19.868C81.912 20.879 81.2015 21.495 80.0599 21.495C79.4994 21.495 78.9614 21.407 78.3793 21.099C78.2715 21.033 78.1637 20.989 78.0559 20.901C78.0353 20.857 77.9922 20.835 78.0353 20.747ZM94.8346 20.747L95.0708 20.11C95.1139 20 95.2001 20.044 95.2217 20.066C95.2864 20.11 95.3295 20.132 95.4157 20.198C96.0831 20.638 96.7083 20.638 96.9023 20.638C97.3972 20.638 97.7206 20.374 97.7206 20V19.978C97.7206 19.582 97.2463 19.428 96.6867 19.253L96.5574 19.209C95.8028 18.989 94.9855 18.659 94.9855 17.692V17.67C94.9855 16.747 95.7176 16.088 96.773 16.088H96.8808C97.505 16.088 98.0861 16.264 98.5173 16.549C98.5604 16.571 98.6035 16.615 98.582 16.681C98.5604 16.747 98.3664 17.253 98.3448 17.319C98.3017 17.429 98.1939 17.363 98.1939 17.363C97.7411 17.1237 97.2397 16.9957 96.7298 16.989C96.2771 16.989 95.9978 17.231 95.9978 17.56V17.582C95.9978 17.956 96.4927 18.132 97.0523 18.308L97.1601 18.33C97.9146 18.571 98.7113 18.901 98.7113 19.846V19.868C98.7113 20.879 97.9999 21.495 96.8592 21.495C96.2987 21.495 95.7607 21.407 95.1786 21.099C95.0708 21.033 94.963 20.989 94.8552 20.901C94.8552 20.857 94.8131 20.835 94.8346 20.747ZM107.283 17.737C107.369 18.066 107.434 18.417 107.434 18.791C107.434 19.165 107.391 19.516 107.283 19.846C107.197 20.176 107.046 20.461 106.852 20.703C106.659 20.945 106.4 21.143 106.12 21.275C105.792 21.4122 105.44 21.4796 105.086 21.473C104.699 21.473 104.354 21.407 104.052 21.275C103.766 21.1482 103.515 20.9518 103.32 20.703C103.118 20.4523 102.971 20.16 102.89 19.846C102.794 19.5026 102.744 19.1479 102.739 18.791C102.739 18.418 102.782 18.066 102.89 17.736C102.975 17.406 103.126 17.121 103.32 16.879C103.514 16.637 103.773 16.439 104.052 16.308C104.354 16.176 104.699 16.088 105.086 16.088C105.474 16.088 105.819 16.154 106.12 16.308C106.422 16.44 106.659 16.638 106.852 16.879C107.046 17.121 107.197 17.408 107.283 17.737ZM106.314 18.769C106.314 18.198 106.206 17.759 106.012 17.451C105.819 17.143 105.496 16.989 105.086 16.989C104.656 16.989 104.354 17.143 104.16 17.451C103.966 17.758 103.859 18.198 103.859 18.769C103.859 19.341 103.966 19.78 104.16 20.109C104.354 20.418 104.656 20.571 105.086 20.571C105.517 20.571 105.819 20.418 106.012 20.11C106.228 19.802 106.314 19.34 106.314 18.77V18.769ZM115.166 20.418L115.403 21.077C115.424 21.165 115.36 21.187 115.36 21.187C114.993 21.341 114.498 21.429 114.002 21.429C113.163 21.429 112.538 21.187 112.107 20.703C111.677 20.22 111.461 19.56 111.461 18.747C111.461 18.374 111.505 18.022 111.612 17.692C111.72 17.362 111.87 17.077 112.086 16.835C112.301 16.593 112.56 16.395 112.861 16.264C113.202 16.1173 113.568 16.0425 113.938 16.044C114.218 16.044 114.455 16.066 114.649 16.088C114.864 16.132 115.166 16.198 115.295 16.264C115.317 16.264 115.381 16.308 115.36 16.374C115.273 16.637 115.209 16.814 115.123 17.033C115.079 17.143 115.015 17.099 115.015 17.099C114.688 16.9894 114.346 16.9373 114.002 16.945C113.529 16.945 113.163 17.099 112.947 17.429C112.711 17.736 112.582 18.154 112.582 18.725C112.582 19.341 112.731 19.78 112.99 20.065C113.249 20.352 113.615 20.484 114.089 20.484C114.283 20.484 114.455 20.462 114.606 20.44C114.756 20.418 114.907 20.374 115.058 20.308C115.036 20.352 115.123 20.33 115.166 20.418ZM120.055 17.538C120.27 18.286 120.162 18.923 120.141 18.967C120.141 19.055 120.055 19.055 120.055 19.055H116.802C116.824 19.56 116.932 19.912 117.19 20.154C117.427 20.396 117.793 20.549 118.31 20.549C119.085 20.549 119.409 20.396 119.645 20.308C119.645 20.308 119.731 20.286 119.774 20.374L119.99 20.989C120.033 21.099 119.99 21.121 119.968 21.143C119.774 21.253 119.28 21.473 118.332 21.473C117.879 21.473 117.471 21.407 117.147 21.275C116.837 21.1577 116.557 20.9696 116.329 20.725C116.118 20.4816 115.957 20.1977 115.855 19.89C115.749 19.549 115.698 19.1927 115.704 18.835C115.704 18.461 115.747 18.11 115.855 17.78C115.941 17.45 116.092 17.165 116.286 16.923C116.48 16.681 116.738 16.483 117.039 16.352C117.341 16.198 117.707 16.132 118.116 16.132C118.461 16.132 118.784 16.198 119.042 16.33C119.236 16.418 119.452 16.571 119.667 16.813C119.774 16.901 119.968 17.23 120.055 17.538ZM116.824 18.242H119.129C119.107 17.934 119.042 17.67 118.913 17.451C118.719 17.143 118.44 16.967 118.009 16.967C117.578 16.967 117.276 17.143 117.082 17.451C116.953 17.648 116.888 17.912 116.824 18.241V18.242ZM94.0595 17.538C94.2751 18.286 94.1673 18.923 94.1673 18.967C94.1673 19.055 94.0801 19.055 94.0801 19.055H90.8286C90.8501 19.56 90.9579 19.912 91.2157 20.154C91.4528 20.396 91.8193 20.549 92.3357 20.549C93.1109 20.549 93.4343 20.396 93.6714 20.308C93.6714 20.308 93.7577 20.286 93.8008 20.374L94.0164 20.989C94.0585 21.099 94.0164 21.121 93.9948 21.143C93.8008 21.253 93.3049 21.473 92.3583 21.473C91.9056 21.473 91.4959 21.407 91.1725 21.275C90.8623 21.1577 90.5824 20.9696 90.3543 20.725C90.1438 20.4815 89.9829 20.1976 89.881 19.89C89.7752 19.549 89.7242 19.1927 89.7301 18.835C89.7301 18.461 89.7732 18.11 89.881 17.78C89.9672 17.45 90.1181 17.165 90.3122 16.923C90.5052 16.681 90.7629 16.483 91.0657 16.352C91.3666 16.198 91.7321 16.132 92.1417 16.132C92.4867 16.132 92.81 16.198 93.0688 16.33C93.2618 16.418 93.4774 16.571 93.693 16.813C93.7792 16.901 93.9948 17.231 94.0585 17.539L94.0595 17.538ZM90.8286 18.242H93.154C93.1324 17.934 93.0688 17.67 92.9384 17.451C92.7454 17.143 92.4651 16.967 92.0349 16.967C91.6037 16.967 91.3019 17.143 91.1088 17.451C90.9579 17.648 90.8933 17.912 90.8286 18.241V18.242ZM85.1213 18.066C85.1213 18.066 85.3791 18.088 85.6603 18.132V18C85.6603 17.56 85.5731 17.34 85.4006 17.209C85.2291 17.077 84.9489 16.989 84.6039 16.989C84.6039 16.989 83.8072 16.989 83.183 17.319C83.1614 17.341 83.1399 17.341 83.1399 17.341C83.1399 17.341 83.0537 17.363 83.0321 17.297L82.7949 16.659C82.7518 16.571 82.8165 16.527 82.8165 16.527C83.1183 16.286 83.8072 16.154 83.8072 16.154C84.0922 16.1029 84.3804 16.0735 84.6696 16.066C85.3154 16.066 85.8103 16.22 86.1552 16.528C86.4992 16.835 86.6716 17.318 86.6716 18V21.033C86.6716 21.033 86.6716 21.121 86.607 21.143C86.607 21.143 86.4776 21.187 86.3698 21.209C86.262 21.231 85.8749 21.319 85.5515 21.363C85.2282 21.429 84.9048 21.451 84.5618 21.451C84.2384 21.451 83.9581 21.429 83.6994 21.363C83.4623 21.3083 83.2364 21.2114 83.0321 21.077C82.85 20.9377 82.7023 20.7569 82.6009 20.549C82.4931 20.352 82.45 20.088 82.45 19.802C82.45 19.517 82.5147 19.252 82.6225 19.033C82.7303 18.813 82.9027 18.637 83.0968 18.483C83.2908 18.33 83.528 18.242 83.7641 18.153C84.0242 18.083 84.2918 18.0464 84.5608 18.044C84.8195 18.066 84.992 18.066 85.1213 18.066ZM83.8288 20.396C83.8288 20.396 84.1306 20.637 84.7764 20.593C85.2497 20.571 85.6593 20.483 85.6593 20.483V18.967C85.6593 18.967 85.2497 18.901 84.7764 18.901C84.1091 18.901 83.8288 19.143 83.8288 19.143C83.6348 19.275 83.5485 19.495 83.5485 19.78C83.5485 19.956 83.5916 20.11 83.6563 20.22C83.6779 20.264 83.6994 20.308 83.8288 20.396ZM111.289 16.374C111.267 16.461 111.095 16.924 111.052 17.077C111.03 17.143 110.987 17.165 110.922 17.165C110.922 17.165 110.729 17.121 110.557 17.121C110.449 17.121 110.277 17.143 110.126 17.187C109.974 17.2371 109.835 17.3196 109.717 17.429C109.588 17.539 109.502 17.714 109.437 17.912C109.372 18.11 109.329 18.44 109.329 18.792V21.252C109.329 21.319 109.286 21.362 109.221 21.362H108.36C108.295 21.362 108.252 21.319 108.252 21.252V16.308C108.252 16.242 108.295 16.198 108.338 16.198H109.178C109.243 16.198 109.264 16.242 109.264 16.308V16.703C109.394 16.527 109.609 16.373 109.802 16.286C109.996 16.198 110.234 16.132 110.643 16.154C110.858 16.176 111.138 16.22 111.181 16.242C111.267 16.264 111.311 16.286 111.289 16.374ZM103.298 14.088C103.32 14.088 103.385 14.132 103.363 14.198L103.104 14.901C103.083 14.945 103.061 14.989 102.954 14.945C102.932 14.945 102.89 14.923 102.782 14.901C102.717 14.879 102.61 14.879 102.523 14.879C102.407 14.8814 102.292 14.8962 102.178 14.923C102.07 14.9512 101.972 15.0126 101.899 15.099C101.798 15.1991 101.718 15.3183 101.662 15.45C101.576 15.6916 101.518 15.9426 101.489 16.198H102.523C102.61 16.198 102.631 16.242 102.631 16.308L102.502 16.989C102.48 17.099 102.394 17.077 102.394 17.077H101.317L100.628 21.319C100.542 21.759 100.456 22.132 100.348 22.439C100.24 22.747 100.111 22.967 99.9176 23.187C99.7452 23.385 99.5511 23.538 99.314 23.604C99.0984 23.692 98.8191 23.736 98.5173 23.736C98.3664 23.736 98.2155 23.736 98.043 23.692C97.9395 23.6758 97.8384 23.6462 97.7421 23.604C97.699 23.582 97.6775 23.538 97.699 23.472C97.7206 23.407 97.9146 22.879 97.9362 22.792C97.9783 22.703 98.044 22.747 98.044 22.747C98.1077 22.769 98.1518 22.791 98.2155 22.813C98.3017 22.835 98.3879 22.835 98.4742 22.835C98.6251 22.835 98.7544 22.813 98.8622 22.769C98.9916 22.725 99.0768 22.637 99.1631 22.527C99.2493 22.417 99.314 22.264 99.4002 22.066C99.4799 21.799 99.5447 21.5275 99.5943 21.253L100.326 17.099H99.6158C99.5296 17.099 99.508 17.055 99.508 16.989L99.6374 16.308C99.6589 16.198 99.7452 16.22 99.7452 16.22H100.477L100.52 16C100.628 15.34 100.844 14.835 101.166 14.505C101.489 14.175 101.963 14 102.545 14C102.717 14 102.868 14.022 102.997 14.044C103.099 14.0274 103.204 14.0427 103.298 14.088ZM88.7824 21.23C88.7824 21.296 88.7393 21.34 88.6962 21.34H87.8339C87.7702 21.34 87.7486 21.296 87.7486 21.23V14.175C87.7486 14.131 87.7917 14.065 87.8348 14.065H88.6962C88.7609 14.065 88.7824 14.109 88.7824 14.175V21.23Z" fill="white"/>
</svg>
