<svg width="196" height="40" viewBox="0 0 196 40" fill="none" xmlns="http://www.w3.org/2000/svg">
<path d="M64.9261 8.155C65.0408 8.175 65.1937 8.253 65.2133 8.429C65.2329 8.585 68.7558 32.913 68.7558 32.913L60.1195 35.1L40.1863 31.584C40.1863 31.584 42.5607 12.806 42.6558 12.161C42.7714 11.281 42.8096 11.262 43.7092 10.969C43.7229 10.955 44.3658 10.753 45.3839 10.434L46.7921 9.992C46.9842 8.585 47.6545 6.768 48.5541 5.322C49.8378 3.251 51.3881 2.098 52.958 2.059C53.7625 2.039 54.4328 2.313 54.9688 2.899C55.008 2.957 55.0453 2.997 55.0835 3.036C55.1609 3.016 55.256 3.016 55.3324 3.016C56.5573 3.016 57.554 3.72 58.2429 5.068C58.4535 5.478 58.6074 5.888 58.7034 6.221L59.6795 5.908C59.8323 5.868 60.1959 5.81 60.388 6.006C60.5791 6.201 62.5135 8.116 62.5135 8.116C62.5135 8.116 64.8115 8.136 64.9261 8.156V8.155ZM56.9317 6.777C57.2061 6.689 57.4648 6.605 57.7068 6.533C57.4579 5.713 56.8837 4.345 55.6773 4.11C56.0409 5.087 56.1369 6.22 56.1565 7.022C56.427 6.939 56.6867 6.856 56.9317 6.777ZM54.3152 7.608L55.1217 7.354C55.1217 6.474 55.0453 5.165 54.6053 4.247C54.1447 4.443 53.7625 4.775 53.4754 5.087C52.7287 5.908 52.1162 7.159 51.7899 8.409C52.6306 8.13849 53.4724 7.87149 54.3152 7.608ZM53.9154 3.388C53.6479 3.211 53.3411 3.133 52.9776 3.133C50.5649 3.211 48.458 7.061 47.8838 9.64L48.1347 9.56C48.9225 9.31 49.7565 9.045 50.6218 8.78C50.9285 7.14 51.6948 5.459 52.6895 4.364C53.0736 3.934 53.495 3.603 53.9154 3.388ZM54.3368 16.518L55.3324 12.688C55.3324 12.688 54.471 12.239 52.7473 12.395C48.363 12.688 46.3717 15.815 46.5628 18.902C46.6922 20.953 47.8828 21.816 48.9265 22.572C49.7418 23.163 50.4679 23.689 50.5267 24.667C50.5649 25.214 50.2396 25.976 49.3204 26.034C47.922 26.113 46.161 24.764 46.161 24.764L45.4908 27.676C45.4908 27.676 47.2331 29.571 50.4121 29.376C53.054 29.2 54.8924 27.05 54.7013 23.885C54.5504 21.463 52.8815 20.37 51.5596 19.504C50.6943 18.938 49.978 18.468 49.9329 17.788C49.9133 17.456 49.9329 16.206 51.8859 16.088C52.7243 16.0389 53.5626 16.186 54.3368 16.518Z" fill="#95BF47"/>
<path d="M64.9301 8.16C64.8125 8.14 62.5096 8.12 62.5096 8.12L60.3831 6C60.3138 5.92614 60.2187 5.88305 60.1185 5.88V35.1L68.7519 32.91C68.7519 32.91 65.2241 8.61001 65.2143 8.43001C65.1986 8.35954 65.1619 8.29575 65.1093 8.24741C65.0566 8.19906 64.9906 8.16853 64.9203 8.16H64.9301Z" fill="#5E8E3E"/>
<path d="M55.3363 12.69L54.3368 16.52C54.3368 16.52 53.2294 15.99 51.8869 16.09C49.927 16.21 49.9172 17.46 49.927 17.79C50.0446 19.51 54.4543 19.88 54.6993 23.89C54.8953 27.05 53.053 29.2 50.4071 29.38C49.5165 29.4596 48.6194 29.3495 47.7726 29.0569C46.9258 28.7643 46.1478 28.2954 45.4878 27.68L46.164 24.76C46.164 24.76 47.9279 26.11 49.3194 26.03C49.4876 26.0265 49.6534 25.9879 49.8065 25.9166C49.9596 25.8453 50.0968 25.7428 50.2097 25.6154C50.3226 25.4881 50.4087 25.3385 50.4629 25.1759C50.5171 25.0134 50.5381 24.8412 50.5247 24.67C50.3875 22.44 46.8009 22.56 46.5657 18.9C46.3697 15.81 48.3591 12.69 52.7394 12.4C54.4739 12.24 55.3363 12.69 55.3363 12.69Z" fill="white"/>
<path d="M80.4623 20.86C79.4628 20.31 78.9434 19.84 78.9434 19.2C78.9434 18.37 79.6489 17.85 80.7857 17.85C82.0792 17.85 83.2356 18.39 83.2356 18.39L84.1469 15.54C84.1469 15.54 83.3042 14.88 80.8347 14.88C77.3951 14.88 74.9942 16.89 74.9942 19.72C74.9942 21.32 76.1113 22.56 77.6008 23.44C78.8062 24.14 79.2276 24.63 79.2276 25.37C79.2276 26.13 78.6396 26.74 77.5029 26.74C75.8369 26.74 74.269 25.86 74.269 25.86L73.2891 28.71C73.2891 28.71 74.7492 29.71 77.1795 29.71C80.7269 29.71 83.2748 27.93 83.2748 24.73C83.2944 22.99 82.0008 21.76 80.4525 20.86H80.4623ZM94.5834 14.84C92.8489 14.84 91.4672 15.68 90.4088 16.97L90.3598 16.95L91.8689 8.85001H87.9099L84.0881 29.43H88.0275L89.3505 22.4C89.8698 19.74 91.2124 18.1 92.4667 18.1C93.3487 18.1 93.6916 18.7 93.6916 19.59C93.6916 20.13 93.6427 20.82 93.5251 21.36L92.0257 29.41H95.9749L97.5233 21.09C97.6996 20.21 97.8172 19.16 97.8172 18.47C97.8172 16.23 96.6217 14.84 94.5834 14.84ZM106.745 14.84C102.002 14.84 98.856 19.21 98.856 24.1C98.856 27.23 100.757 29.73 104.295 29.73C108.949 29.73 112.105 25.47 112.105 20.47C112.085 17.59 110.419 14.84 106.745 14.84ZM104.785 26.64C103.452 26.64 102.874 25.47 102.874 24.02C102.874 21.72 104.05 17.94 106.196 17.94C107.587 17.94 108.058 19.18 108.058 20.37C108.058 22.85 106.882 26.64 104.794 26.64H104.785ZM122.179 14.84C119.523 14.84 118.004 17.22 118.004 17.22H117.945L118.181 15.05H114.692C114.485 16.839 114.217 18.62 113.888 20.39L111.145 35.12H115.094L116.191 29.16H116.26C116.26 29.16 117.063 29.69 118.582 29.69C123.218 29.69 126.236 24.84 126.236 19.94C126.255 17.26 125.07 14.84 122.179 14.84ZM118.406 26.7C117.377 26.7 116.779 26.11 116.779 26.11L117.436 22.34C117.887 19.84 119.17 18.16 120.552 18.16C121.757 18.16 122.12 19.29 122.12 20.39C122.12 22.99 120.611 26.69 118.406 26.69V26.7ZM131.89 9.07001C131.59 9.06993 131.293 9.13104 131.016 9.24974C130.739 9.36844 130.489 9.54234 130.279 9.76124C130.069 9.98014 129.904 10.2396 129.794 10.5245C129.683 10.8093 129.63 11.1138 129.636 11.42C129.636 12.61 130.371 13.43 131.488 13.43H131.547C132.772 13.43 133.84 12.59 133.86 11.09C133.86 9.91001 133.095 9.07001 131.89 9.07001ZM126.373 29.43H130.322L132.997 15.17H129.019L126.373 29.43ZM143.032 15.13H140.288L140.426 14.47C140.661 13.1 141.464 11.87 142.768 11.87C143.473 11.87 144.032 12.07 144.032 12.07L144.796 8.92001C144.796 8.92001 144.11 8.57001 142.65 8.57001C141.249 8.57001 139.857 8.97001 138.779 9.91001C137.437 11.09 136.81 12.77 136.486 14.47L136.369 15.13H134.526L133.958 18.16H135.79L133.703 29.43H137.652L139.74 18.16H142.454L143.042 15.13H143.032ZM152.538 15.17C152.538 15.17 150.058 21.52 148.951 24.97H148.892C148.814 23.87 147.912 15.17 147.912 15.17H143.777L146.158 28.28C146.207 28.58 146.178 28.75 146.08 28.95C145.56 29.9202 144.821 30.7498 143.924 31.37C143.189 31.92 142.356 32.27 141.69 32.5L142.787 35.92C143.591 35.75 145.237 35.08 146.648 33.73C148.451 32.01 150.117 29.36 151.822 25.74L156.644 15.17H152.528H152.538Z" fill="black"/>
</svg>
