<svg width="37" height="37" viewBox="0 0 37 37" fill="none" xmlns="http://www.w3.org/2000/svg">
<path d="M32.8699 16.3755L30.7964 13.9667C30.4 13.5093 30.0799 12.6556 30.0799 12.0457V9.45394C30.0799 7.83788 28.7535 6.51149 27.1374 6.51149H24.5456C23.9511 6.51149 23.082 6.19133 22.6247 5.79494L20.2158 3.7215C19.1639 2.822 17.4411 2.822 16.3739 3.7215L13.9803 5.81018C13.5229 6.19133 12.6539 6.51149 12.0593 6.51149H9.42178C7.80572 6.51149 6.47933 7.83788 6.47933 9.45394V12.061C6.47933 12.6556 6.15917 13.5093 5.77802 13.9667L3.71983 16.3908C2.83558 17.4428 2.83558 19.1503 3.71983 20.2022L5.77802 22.6263C6.15917 23.0837 6.47933 23.9375 6.47933 24.5321V27.1391C6.47933 28.7552 7.80572 30.0815 9.42178 30.0815H12.0593C12.6539 30.0815 13.5229 30.4017 13.9803 30.7981L16.3891 32.8715C17.4411 33.771 19.1639 33.771 20.2311 32.8715L22.6399 30.7981C23.0973 30.4017 23.9511 30.0815 24.5609 30.0815H27.1527C28.7687 30.0815 30.0951 28.7552 30.0951 27.1391V24.5473C30.0951 23.9527 30.4153 23.0837 30.8117 22.6263L32.8851 20.2175C33.7694 19.1655 33.7694 17.4275 32.8699 16.3755ZM24.6371 15.4151L17.2734 22.7788C17.0599 22.9922 16.7703 23.1142 16.4654 23.1142C16.1604 23.1142 15.8708 22.9922 15.6573 22.7788L11.9678 19.0893C11.5257 18.6472 11.5257 17.9154 11.9678 17.4732C12.41 17.0311 13.1418 17.0311 13.5839 17.4732L16.4654 20.3547L23.0211 13.799C23.4632 13.3569 24.195 13.3569 24.6371 13.799C25.0792 14.2411 25.0792 14.9729 24.6371 15.4151Z" fill="#28B446"/>
</svg>
