<svg width="67" height="60" viewBox="0 0 67 60" fill="none" xmlns="http://www.w3.org/2000/svg">
<path fill-rule="evenodd" clip-rule="evenodd" d="M53.3962 0.0380817L63.1526 57.486H66.5304V57.9007H55.7804V57.4881H58.9456L55.7373 38.5955H49.2245V38.604L49.2598 38.824C49.5195 40.4911 49.6488 42.2386 49.641 43.9967V51.0777C49.641 54.7209 50.3858 58.4126 51.8096 58.4126C52.6445 58.4126 53.3119 57.778 54.1066 56.2082L54.2193 56.4366C53.357 58.4021 52.3123 59.2377 50.7454 59.2377C49.5636 59.2377 48.5513 58.6242 47.7379 57.4141L47.5831 57.175C46.512 55.4254 45.8162 52.5671 45.5174 48.6765L45.4693 48.0503L45.4194 47.0982L45.4145 46.9353L43.6182 57.4818H46.1661V57.8964H40.8361V57.4818H43.4114L45.3821 45.9008V45.8754C45.3614 45.1922 45.349 44.5079 45.3449 43.8232V38.7669C45.3449 32.5533 43.2047 28.9884 39.472 28.9884H35.8041V57.486H38.983V57.8985H26.5602V57.486H29.7254L26.5171 38.5934H17.6142L14.4353 57.2744L14.5685 57.2279C18.7422 55.675 20.6609 48.7992 20.6874 41.5574H20.8804V57.8985H0.677734L15.6739 2.35258H9.64429C4.64654 2.35258 2.38481 10.6882 2.34953 18.9942H2.15648V1.93792H20.3601L20.2493 2.35258L5.36582 57.486H13.1956C13.3916 57.486 13.5847 57.4648 13.7797 57.431C13.9107 57.4111 14.0414 57.3836 14.1717 57.3485L14.2207 57.3379L23.9761 0H24.1691L24.176 0.0380817L31.8431 45.1836V2.35258H28.6857V1.93369H39.5504C44.7726 1.93369 48.418 7.71995 48.418 16.009C48.418 22.0534 45.9211 27.0695 42.2071 28.4955L41.525 28.6859L42.212 28.834C44.4639 29.3925 46.2533 30.8861 47.5204 33.2789L47.5292 33.2958L53.1972 0H53.3893L53.3962 0.0380817ZM49.1295 38.0772L49.1491 38.1808H55.6648L51.2883 12.4082L47.686 33.5941L47.7046 33.6343L47.8879 34.0257C48.4181 35.1937 48.8396 36.5705 49.1295 38.0814V38.0772ZM35.807 28.5737V2.35258H38.6058C42.3453 2.35258 44.3199 7.10641 44.3199 16.0957C44.3199 25.6584 43.187 28.5737 39.472 28.5737H35.807ZM22.071 12.4103L17.6848 38.1808H26.4475L22.071 12.4082V12.4103Z" fill="black"/>
</svg>
